<svg xmlns="http://www.w3.org/2000/svg" version="1.0" width="260" height="680" viewBox="0 0 260 680" id="svg10350" style="display:inline">
  <defs id="defs10353" />
  <g transform="translate(-230.530452,25.388892)" id="layer13">
    <path d="M 291.2963,95.784191 L 317.96297,69.74074 L 463.25411,69.74074 L 436.58745,95.784191 L 291.2963,95.784191 z" id="path10369" style="fill:none;fill-rule:evenodd;stroke:#000000;stroke-width:1;stroke-linecap:butt;stroke-linejoin:miter;marker-end:none;stroke-miterlimit:4;stroke-dasharray:3, 3;stroke-dashoffset:0;stroke-opacity:1" />
    <path d="M 436.59722,95.724535 L 436.59722,538.25926" id="path10391" style="fill:none;fill-rule:evenodd;stroke:#000000;stroke-width:1;stroke-linecap:butt;stroke-linejoin:miter;stroke-miterlimit:4;stroke-dasharray:3, 3;stroke-dashoffset:0;stroke-opacity:1" />
    <path d="M 463.83419,69.461557 L 463.83419,511.68518" id="path10393" style="fill:none;fill-rule:evenodd;stroke:#000000;stroke-width:1;stroke-linecap:butt;stroke-linejoin:miter;stroke-miterlimit:4;stroke-dasharray:3, 3;stroke-dashoffset:0;stroke-opacity:1" />
    <path d="M 318.22257,69.461557 L 318.22257,511.68518" id="path10399" style="fill:none;fill-rule:evenodd;stroke:#000000;stroke-width:1;stroke-linecap:butt;stroke-linejoin:miter;stroke-miterlimit:4;stroke-dasharray:3, 3;stroke-dashoffset:0;stroke-opacity:1" />
    <path d="M 291.2963,538.13558 L 317.96297,512.09213 L 463.25411,512.09213 L 436.58745,538.13558 L 291.2963,538.13558 z" id="path10395" style="fill:none;fill-rule:evenodd;stroke:#000000;stroke-width:1;stroke-linecap:butt;stroke-linejoin:miter;stroke-miterlimit:4;stroke-dasharray:3, 3;stroke-dashoffset:0;stroke-opacity:1" />
    <path d="M 290.9856,538.25926 L 290.9856,95.724535 L 290.9856,22.333332" id="path10397" style="fill:none;fill-rule:evenodd;stroke:#000000;stroke-width:1;stroke-linecap:butt;stroke-linejoin:miter;stroke-miterlimit:4;stroke-dasharray:3, 3;stroke-dashoffset:0;stroke-opacity:1" />
    <g transform="translate(-145.18519,294.87472)" id="g11550">
      <path d="M 449.44445,97.888885 A 7.0370369,7.0370369 0 1 1 435.37037,97.888885 A 7.0370369,7.0370369 0 1 1 449.44445,97.888885 z" transform="matrix(0.868421,0,0,0.868421,52.285577,10.47271)" id="path11552" style="opacity:1;fill:#ffd40d;fill-opacity:1;fill-rule:nonzero;stroke:none;stroke-width:1;stroke-linecap:round;stroke-linejoin:miter;stroke-miterlimit:4;stroke-dasharray:8, 4;stroke-dashoffset:0;stroke-opacity:1" />
      <path d="M 449.44445,97.888885 A 7.0370369,7.0370369 0 1 1 435.37037,97.888885 A 7.0370369,7.0370369 0 1 1 449.44445,97.888885 z" transform="matrix(0.868421,0,0,0.868421,79.5078,-15.638401)" id="path11554" style="opacity:1;fill:#ffd40d;fill-opacity:1;fill-rule:nonzero;stroke:none;stroke-width:1;stroke-linecap:round;stroke-linejoin:miter;stroke-miterlimit:4;stroke-dasharray:8, 4;stroke-dashoffset:0;stroke-opacity:1" />
    </g>
    <g transform="matrix(-1,0,0,-1,582.40741,631.49536)" id="g11715">
      <path d="M 227.96297,260.2963 L 279.44445,271.96297 L 364.81482,260.48148 L 307.22222,245.11111 L 227.96297,260.2963 z" id="path11717" style="fill:none;fill-rule:evenodd;stroke:#000000;stroke-width:1px;stroke-linecap:butt;stroke-linejoin:miter;stroke-opacity:1" />
      <path d="M 279.25926,272.14815 L 307.22222,245.2963" id="path11719" style="fill:none;fill-rule:evenodd;stroke:#000000;stroke-width:1px;stroke-linecap:butt;stroke-linejoin:miter;stroke-opacity:1" />
      <path d="M 365.18519,260.48149 L 291.66667,167.7037 L 228.14815,259.74074" id="path11721" style="fill:none;fill-rule:evenodd;stroke:#000000;stroke-width:1px;stroke-linecap:butt;stroke-linejoin:miter;stroke-opacity:1" />
      <path d="M 279.25926,271.77778 L 291.48148,167.7037 L 306.85185,245.11111" id="path11723" style="fill:none;fill-rule:evenodd;stroke:#000000;stroke-width:1px;stroke-linecap:butt;stroke-linejoin:miter;stroke-opacity:1" />
    </g>
    <path d="M 277.27888,551.55744 L 318.27668,511.77575" id="path11651" style="fill:none;fill-rule:evenodd;stroke:#000000;stroke-width:1px;stroke-linecap:butt;stroke-linejoin:miter;stroke-opacity:1" />
    <g id="g11709">
      <path d="M 217.40741,255.11111 L 275.74075,270.66667 L 354.25926,254.92592 L 302.59259,244 L 217.40741,255.11111 z" id="path11701" style="fill:none;fill-rule:evenodd;stroke:#000000;stroke-width:1px;stroke-linecap:butt;stroke-linejoin:miter;stroke-opacity:1" />
      <path d="M 275.55556,270.48148 L 302.40741,244" id="path11703" style="fill:none;fill-rule:evenodd;stroke:#000000;stroke-width:1px;stroke-linecap:butt;stroke-linejoin:miter;stroke-opacity:1" />
      <path d="M 354.25926,254.92593 L 291.66667,167.7037 L 217.59259,254.92593" id="path11705" style="fill:none;fill-rule:evenodd;stroke:#000000;stroke-width:1px;stroke-linecap:butt;stroke-linejoin:miter;stroke-opacity:1" />
      <path d="M 275.55556,270.85185 L 291.48148,167.7037 L 302.03704,244" id="path11707" style="fill:none;fill-rule:evenodd;stroke:#000000;stroke-width:1px;stroke-linecap:butt;stroke-linejoin:miter;stroke-opacity:1" />
    </g>
    <g transform="translate(-15.989471,100.4339)" id="g11500">
      <path d="M 449.44445,97.888885 A 7.0370369,7.0370369 0 1 1 435.37037,97.888885 A 7.0370369,7.0370369 0 1 1 449.44445,97.888885 z" transform="matrix(1.3421052,0,0,1.3421052,-130.0536,11.711864)" id="path11502" style="opacity:1;fill:#ff0d0d;fill-opacity:1;fill-rule:nonzero;stroke:none;stroke-width:1;stroke-linecap:round;stroke-linejoin:miter;stroke-miterlimit:4;stroke-dasharray:8, 4;stroke-dashoffset:0;stroke-opacity:1" />
      <path d="M 449.44445,97.888885 A 7.0370369,7.0370369 0 1 1 435.37037,97.888885 A 7.0370369,7.0370369 0 1 1 449.44445,97.888885 z" transform="matrix(1.3421052,0,0,1.3421052,-157.27582,37.822969)" id="path11504" style="opacity:1;fill:#ff0d0d;fill-opacity:1;fill-rule:nonzero;stroke:none;stroke-width:1;stroke-linecap:round;stroke-linejoin:miter;stroke-miterlimit:4;stroke-dasharray:8, 4;stroke-dashoffset:0;stroke-opacity:1" />
    </g>
    <g id="g11481">
      <path d="M 449.44445,97.888885 A 7.0370369,7.0370369 0 1 1 435.37037,97.888885 A 7.0370369,7.0370369 0 1 1 449.44445,97.888885 z" transform="matrix(0.868421,0,0,0.868421,52.285577,10.47271)" id="path11421" style="fill:#ffd40d;fill-opacity:1;fill-rule:nonzero;stroke:none;stroke-width:1;stroke-linecap:round;stroke-linejoin:miter;stroke-miterlimit:4;stroke-dasharray:8, 4;stroke-dashoffset:0;stroke-opacity:1" />
      <path d="M 449.44445,97.888885 A 7.0370369,7.0370369 0 1 1 435.37037,97.888885 A 7.0370369,7.0370369 0 1 1 449.44445,97.888885 z" transform="matrix(0.868421,0,0,0.868421,79.5078,-15.638401)" id="path11423" style="fill:#ffd40d;fill-opacity:1;fill-rule:nonzero;stroke:none;stroke-width:1;stroke-linecap:round;stroke-linejoin:miter;stroke-miterlimit:4;stroke-dasharray:8, 4;stroke-dashoffset:0;stroke-opacity:1" />
      <path d="M 449.44445,97.888885 A 7.0370369,7.0370369 0 1 1 435.37037,97.888885 A 7.0370369,7.0370369 0 1 1 449.44445,97.888885 z" transform="matrix(1.3421052,0,0,1.3421052,-143.66471,-48.951263)" id="path11425" style="fill:#ff0d0d;fill-opacity:1;fill-rule:nonzero;stroke:none;stroke-width:1;stroke-linecap:round;stroke-linejoin:miter;stroke-miterlimit:4;stroke-dasharray:8, 4;stroke-dashoffset:0;stroke-opacity:1" />
    </g>
    <g transform="translate(0,1.5258789e-5)" id="g11486">
      <path d="M 449.44445,97.888885 A 7.0370369,7.0370369 0 1 1 435.37037,97.888885 A 7.0370369,7.0370369 0 1 1 449.44445,97.888885 z" transform="matrix(0.868421,0,0,0.868421,52.285577,157.91005)" id="path11447" style="fill:#ffd40d;fill-opacity:1;fill-rule:nonzero;stroke:none;stroke-width:1;stroke-linecap:round;stroke-linejoin:miter;stroke-miterlimit:4;stroke-dasharray:8, 4;stroke-dashoffset:0;stroke-opacity:1" />
      <path d="M 449.44445,97.888885 A 7.0370369,7.0370369 0 1 1 435.37037,97.888885 A 7.0370369,7.0370369 0 1 1 449.44445,97.888885 z" transform="matrix(0.868421,0,0,0.868421,79.5078,131.79894)" id="path11449" style="fill:#ffd40d;fill-opacity:1;fill-rule:nonzero;stroke:none;stroke-width:1;stroke-linecap:round;stroke-linejoin:miter;stroke-miterlimit:4;stroke-dasharray:8, 4;stroke-dashoffset:0;stroke-opacity:1" />
    </g>
    <g transform="translate(0,294.87472)" id="g11453">
      <path d="M 449.44445,97.888885 A 7.0370369,7.0370369 0 1 1 435.37037,97.888885 A 7.0370369,7.0370369 0 1 1 449.44445,97.888885 z" transform="matrix(0.868421,0,0,0.868421,52.285577,10.47271)" id="path11455" style="opacity:1;fill:#ffd40d;fill-opacity:1;fill-rule:nonzero;stroke:none;stroke-width:1;stroke-linecap:round;stroke-linejoin:miter;stroke-miterlimit:4;stroke-dasharray:8, 4;stroke-dashoffset:0;stroke-opacity:1" />
      <path d="M 449.44445,97.888885 A 7.0370369,7.0370369 0 1 1 435.37037,97.888885 A 7.0370369,7.0370369 0 1 1 449.44445,97.888885 z" transform="matrix(0.868421,0,0,0.868421,79.5078,-15.638401)" id="path11457" style="opacity:1;fill:#ffd40d;fill-opacity:1;fill-rule:nonzero;stroke:none;stroke-width:1;stroke-linecap:round;stroke-linejoin:miter;stroke-miterlimit:4;stroke-dasharray:8, 4;stroke-dashoffset:0;stroke-opacity:1" />
    </g>
    <g transform="translate(0,442.31208)" id="g11461">
      <path d="M 449.44445,97.888885 A 7.0370369,7.0370369 0 1 1 435.37037,97.888885 A 7.0370369,7.0370369 0 1 1 449.44445,97.888885 z" transform="matrix(0.868421,0,0,0.868421,52.285577,10.47271)" id="path11463" style="opacity:1;fill:#ffd40d;fill-opacity:1;fill-rule:nonzero;stroke:none;stroke-width:1;stroke-linecap:round;stroke-linejoin:miter;stroke-miterlimit:4;stroke-dasharray:8, 4;stroke-dashoffset:0;stroke-opacity:1" />
      <path d="M 449.44445,97.888885 A 7.0370369,7.0370369 0 1 1 435.37037,97.888885 A 7.0370369,7.0370369 0 1 1 449.44445,97.888885 z" transform="matrix(0.868421,0,0,0.868421,79.5078,-15.638401)" id="path11465" style="opacity:1;fill:#ffd40d;fill-opacity:1;fill-rule:nonzero;stroke:none;stroke-width:1;stroke-linecap:round;stroke-linejoin:miter;stroke-miterlimit:4;stroke-dasharray:8, 4;stroke-dashoffset:0;stroke-opacity:1" />
      <path d="M 449.44445,97.888885 A 7.0370369,7.0370369 0 1 1 435.37037,97.888885 A 7.0370369,7.0370369 0 1 1 449.44445,97.888885 z" transform="matrix(1.3421052,0,0,1.3421052,-143.66471,-48.951263)" id="path11467" style="opacity:1;fill:#ff0d0d;fill-opacity:1;fill-rule:nonzero;stroke:none;stroke-width:1;stroke-linecap:round;stroke-linejoin:miter;stroke-miterlimit:4;stroke-dasharray:8, 4;stroke-dashoffset:0;stroke-opacity:1" />
    </g>
    <g transform="translate(0,-1.5258789e-5)" id="g11490">
      <path d="M 449.44445,97.888885 A 7.0370369,7.0370369 0 1 1 435.37037,97.888885 A 7.0370369,7.0370369 0 1 1 449.44445,97.888885 z" transform="matrix(1.3421052,0,0,1.3421052,-130.0536,11.711864)" id="path11469" style="opacity:1;fill:#ff0d0d;fill-opacity:1;fill-rule:nonzero;stroke:none;stroke-width:1;stroke-linecap:round;stroke-linejoin:miter;stroke-miterlimit:4;stroke-dasharray:8, 4;stroke-dashoffset:0;stroke-opacity:1" />
      <path d="M 449.44445,97.888885 A 7.0370369,7.0370369 0 1 1 435.37037,97.888885 A 7.0370369,7.0370369 0 1 1 449.44445,97.888885 z" transform="matrix(1.3421052,0,0,1.3421052,-157.27582,37.822969)" id="path11479" style="opacity:1;fill:#ff0d0d;fill-opacity:1;fill-rule:nonzero;stroke:none;stroke-width:1;stroke-linecap:round;stroke-linejoin:miter;stroke-miterlimit:4;stroke-dasharray:8, 4;stroke-dashoffset:0;stroke-opacity:1" />
    </g>
    <g transform="translate(0,294.87471)" id="g11494">
      <path d="M 449.44445,97.888885 A 7.0370369,7.0370369 0 1 1 435.37037,97.888885 A 7.0370369,7.0370369 0 1 1 449.44445,97.888885 z" transform="matrix(1.3421052,0,0,1.3421052,-130.0536,11.711864)" id="path11496" style="opacity:1;fill:#ff0d0d;fill-opacity:1;fill-rule:nonzero;stroke:none;stroke-width:1;stroke-linecap:round;stroke-linejoin:miter;stroke-miterlimit:4;stroke-dasharray:8, 4;stroke-dashoffset:0;stroke-opacity:1" />
      <path d="M 449.44445,97.888885 A 7.0370369,7.0370369 0 1 1 435.37037,97.888885 A 7.0370369,7.0370369 0 1 1 449.44445,97.888885 z" transform="matrix(1.3421052,0,0,1.3421052,-157.27582,37.822969)" id="path11498" style="opacity:1;fill:#ff0d0d;fill-opacity:1;fill-rule:nonzero;stroke:none;stroke-width:1;stroke-linecap:round;stroke-linejoin:miter;stroke-miterlimit:4;stroke-dasharray:8, 4;stroke-dashoffset:0;stroke-opacity:1" />
    </g>
    <g transform="translate(-15.989471,209.67784)" id="g11506">
      <path d="M 449.44445,97.888885 A 7.0370369,7.0370369 0 1 1 435.37037,97.888885 A 7.0370369,7.0370369 0 1 1 449.44445,97.888885 z" transform="matrix(1.3421052,0,0,1.3421052,-130.0536,11.711864)" id="path11508" style="opacity:1;fill:#ff0d0d;fill-opacity:1;fill-rule:nonzero;stroke:none;stroke-width:1;stroke-linecap:round;stroke-linejoin:miter;stroke-miterlimit:4;stroke-dasharray:8, 4;stroke-dashoffset:0;stroke-opacity:1" />
      <path d="M 449.44445,97.888885 A 7.0370369,7.0370369 0 1 1 435.37037,97.888885 A 7.0370369,7.0370369 0 1 1 449.44445,97.888885 z" transform="matrix(1.3421052,0,0,1.3421052,-157.27582,37.822969)" id="path11510" style="opacity:1;fill:#ff0d0d;fill-opacity:1;fill-rule:nonzero;stroke:none;stroke-width:1;stroke-linecap:round;stroke-linejoin:miter;stroke-miterlimit:4;stroke-dasharray:8, 4;stroke-dashoffset:0;stroke-opacity:1" />
    </g>
    <g transform="translate(-161.23999,100.4339)" id="g11673">
      <path d="M 449.44445,97.888885 A 7.0370369,7.0370369 0 1 1 435.37037,97.888885 A 7.0370369,7.0370369 0 1 1 449.44445,97.888885 z" transform="matrix(1.3421052,0,0,1.3421052,-130.0536,11.711864)" id="path11675" style="opacity:1;fill:#ff0d0d;fill-opacity:1;fill-rule:nonzero;stroke:none;stroke-width:1;stroke-linecap:round;stroke-linejoin:miter;stroke-miterlimit:4;stroke-dasharray:8, 4;stroke-dashoffset:0;stroke-opacity:1" />
      <path d="M 449.44445,97.888885 A 7.0370369,7.0370369 0 1 1 435.37037,97.888885 A 7.0370369,7.0370369 0 1 1 449.44445,97.888885 z" transform="matrix(1.3421052,0,0,1.3421052,-157.27582,37.822969)" id="path11677" style="opacity:1;fill:#ff0d0d;fill-opacity:1;fill-rule:nonzero;stroke:none;stroke-width:1;stroke-linecap:round;stroke-linejoin:miter;stroke-miterlimit:4;stroke-dasharray:8, 4;stroke-dashoffset:0;stroke-opacity:1" />
    </g>
    <g transform="translate(-145.18519,1.5258789e-5)" id="g11544">
      <path d="M 449.44445,97.888885 A 7.0370369,7.0370369 0 1 1 435.37037,97.888885 A 7.0370369,7.0370369 0 1 1 449.44445,97.888885 z" transform="matrix(0.868421,0,0,0.868421,52.285577,157.91005)" id="path11546" style="fill:#ffd40d;fill-opacity:1;fill-rule:nonzero;stroke:none;stroke-width:1;stroke-linecap:round;stroke-linejoin:miter;stroke-miterlimit:4;stroke-dasharray:8, 4;stroke-dashoffset:0;stroke-opacity:1" />
      <path d="M 449.44445,97.888885 A 7.0370369,7.0370369 0 1 1 435.37037,97.888885 A 7.0370369,7.0370369 0 1 1 449.44445,97.888885 z" transform="matrix(0.868421,0,0,0.868421,79.5078,131.79894)" id="path11548" style="fill:#ffd40d;fill-opacity:1;fill-rule:nonzero;stroke:none;stroke-width:1;stroke-linecap:round;stroke-linejoin:miter;stroke-miterlimit:4;stroke-dasharray:8, 4;stroke-dashoffset:0;stroke-opacity:1" />
    </g>
    <path d="M 290.67526,464.78763 L 304.37896,524.97281 L 291.04563,612.00986 L 276.97156,551.26912 L 290.49008,464.60244" id="path11632" style="fill:none;fill-rule:evenodd;stroke:#000000;stroke-width:1;stroke-linecap:butt;stroke-linejoin:miter;stroke-miterlimit:4;stroke-dasharray:none;stroke-dashoffset:0;stroke-opacity:1" />
    <g transform="translate(-145.18519,442.31208)" id="g11556">
      <path d="M 449.44445,97.888885 A 7.0370369,7.0370369 0 1 1 435.37037,97.888885 A 7.0370369,7.0370369 0 1 1 449.44445,97.888885 z" transform="matrix(0.868421,0,0,0.868421,52.285577,10.47271)" id="path11558" style="opacity:1;fill:#ffd40d;fill-opacity:1;fill-rule:nonzero;stroke:none;stroke-width:1;stroke-linecap:round;stroke-linejoin:miter;stroke-miterlimit:4;stroke-dasharray:8, 4;stroke-dashoffset:0;stroke-opacity:1" />
      <path d="M 449.44445,97.888885 A 7.0370369,7.0370369 0 1 1 435.37037,97.888885 A 7.0370369,7.0370369 0 1 1 449.44445,97.888885 z" transform="matrix(0.868421,0,0,0.868421,79.5078,-15.638401)" id="path11560" style="opacity:1;fill:#ffd40d;fill-opacity:1;fill-rule:nonzero;stroke:none;stroke-width:1;stroke-linecap:round;stroke-linejoin:miter;stroke-miterlimit:4;stroke-dasharray:8, 4;stroke-dashoffset:0;stroke-opacity:1" />
      <path d="M 449.44445,97.888885 A 7.0370369,7.0370369 0 1 1 435.37037,97.888885 A 7.0370369,7.0370369 0 1 1 449.44445,97.888885 z" transform="matrix(1.3421052,0,0,1.3421052,-143.66471,-48.951263)" id="path11562" style="opacity:1;fill:#ff0d0d;fill-opacity:1;fill-rule:nonzero;stroke:none;stroke-width:1;stroke-linecap:round;stroke-linejoin:miter;stroke-miterlimit:4;stroke-dasharray:8, 4;stroke-dashoffset:0;stroke-opacity:1" />
    </g>
    <path d="M 449.44445,97.888885 A 7.0370369,7.0370369 0 1 1 435.37037,97.888885 A 7.0370369,7.0370369 0 1 1 449.44445,97.888885 z" transform="matrix(1.3421052,0,0,1.3421052,-275.23879,11.711849)" id="path11566" style="fill:#ff0d0d;fill-opacity:1;fill-rule:nonzero;stroke:none;stroke-width:1;stroke-linecap:round;stroke-linejoin:miter;stroke-miterlimit:4;stroke-dasharray:8, 4;stroke-dashoffset:0;stroke-opacity:1" />
    <g transform="translate(-145.18519,294.87471)" id="g11570">
      <path d="M 449.44445,97.888885 A 7.0370369,7.0370369 0 1 1 435.37037,97.888885 A 7.0370369,7.0370369 0 1 1 449.44445,97.888885 z" transform="matrix(1.3421052,0,0,1.3421052,-130.0536,11.711864)" id="path11572" style="opacity:1;fill:#ff0d0d;fill-opacity:1;fill-rule:nonzero;stroke:none;stroke-width:1;stroke-linecap:round;stroke-linejoin:miter;stroke-miterlimit:4;stroke-dasharray:8, 4;stroke-dashoffset:0;stroke-opacity:1" />
      <path d="M 449.44445,97.888885 A 7.0370369,7.0370369 0 1 1 435.37037,97.888885 A 7.0370369,7.0370369 0 1 1 449.44445,97.888885 z" transform="matrix(1.3421052,0,0,1.3421052,-157.27582,37.822969)" id="path11574" style="opacity:1;fill:#ff0d0d;fill-opacity:1;fill-rule:nonzero;stroke:none;stroke-width:1;stroke-linecap:round;stroke-linejoin:miter;stroke-miterlimit:4;stroke-dasharray:8, 4;stroke-dashoffset:0;stroke-opacity:1" />
    </g>
    <path d="M 277.27888,109.35381 L 318.27668,69.572122" id="path11607" style="fill:none;fill-rule:evenodd;stroke:#000000;stroke-width:1px;stroke-linecap:butt;stroke-linejoin:miter;stroke-opacity:1" />
    <path d="M 449.44445,97.888885 A 7.0370369,7.0370369 0 1 1 435.37037,97.888885 A 7.0370369,7.0370369 0 1 1 449.44445,97.888885 z" transform="matrix(0.868421,0,0,0.868421,-65.67739,-15.638401)" id="path11540" style="fill:#ffd40d;fill-opacity:1;fill-rule:nonzero;stroke:none;stroke-width:1;stroke-linecap:round;stroke-linejoin:miter;stroke-miterlimit:4;stroke-dasharray:8, 4;stroke-dashoffset:0;stroke-opacity:1" />
    <path d="M 290.74074,22.518517 L 304.44444,82.703703 L 291.11111,169.74074 L 277.03704,109 L 290.55556,22.333332" id="path11609" style="fill:none;fill-rule:evenodd;stroke:#000000;stroke-width:1;stroke-linecap:butt;stroke-linejoin:miter;stroke-miterlimit:4;stroke-dasharray:none;stroke-dashoffset:0;stroke-opacity:1" />
    <g id="g11611">
      <path d="M 449.44445,97.888885 A 7.0370369,7.0370369 0 1 1 435.37037,97.888885 A 7.0370369,7.0370369 0 1 1 449.44445,97.888885 z" transform="matrix(1.3421052,0,0,1.3421052,-302.46101,37.822954)" id="path11568" style="fill:#ff0d0d;fill-opacity:1;fill-rule:nonzero;stroke:none;stroke-width:1;stroke-linecap:round;stroke-linejoin:miter;stroke-miterlimit:4;stroke-dasharray:8, 4;stroke-dashoffset:0;stroke-opacity:1" />
      <path d="M 449.44445,97.888885 A 7.0370369,7.0370369 0 1 1 435.37037,97.888885 A 7.0370369,7.0370369 0 1 1 449.44445,97.888885 z" transform="matrix(1.3421052,0,0,1.3421052,-303.29435,-109.32163)" id="path11601" style="fill:#ff0d0d;fill-opacity:1;fill-rule:nonzero;stroke:none;stroke-width:1;stroke-linecap:round;stroke-linejoin:miter;stroke-miterlimit:4;stroke-dasharray:8, 4;stroke-dashoffset:0;stroke-opacity:1" />
      <path d="M 449.44445,97.888885 A 7.0370369,7.0370369 0 1 1 435.37037,97.888885 A 7.0370369,7.0370369 0 1 1 449.44445,97.888885 z" transform="matrix(0.868421,0,0,0.868421,-92.899613,10.47271)" id="path11538" style="fill:#ffd40d;fill-opacity:1;fill-rule:nonzero;stroke:none;stroke-width:1;stroke-linecap:round;stroke-linejoin:miter;stroke-miterlimit:4;stroke-dasharray:8, 4;stroke-dashoffset:0;stroke-opacity:1" />
      <path d="M 449.44445,97.888885 A 7.0370369,7.0370369 0 1 1 435.37037,97.888885 A 7.0370369,7.0370369 0 1 1 449.44445,97.888885 z" transform="matrix(1.3421052,0,0,1.3421052,-316.90546,-22.547417)" id="path11603" style="fill:#ff0d0d;fill-opacity:1;fill-rule:nonzero;stroke:none;stroke-width:1;stroke-linecap:round;stroke-linejoin:miter;stroke-miterlimit:4;stroke-dasharray:8, 4;stroke-dashoffset:0;stroke-opacity:1" />
      <path d="M 449.44445,97.888885 A 7.0370369,7.0370369 0 1 1 435.37037,97.888885 A 7.0370369,7.0370369 0 1 1 449.44445,97.888885 z" transform="matrix(1.3421052,0,0,1.3421052,-288.8499,-48.951263)" id="path11542" style="fill:#ff0d0d;fill-opacity:1;fill-rule:nonzero;stroke:none;stroke-width:1;stroke-linecap:round;stroke-linejoin:miter;stroke-miterlimit:4;stroke-dasharray:8, 4;stroke-dashoffset:0;stroke-opacity:1" />
    </g>
    <path d="M 449.44445,97.888885 A 7.0370369,7.0370369 0 1 1 435.37037,97.888885 A 7.0370369,7.0370369 0 1 1 449.44445,97.888885 z" transform="matrix(1.3421052,0,0,1.3421052,-302.52648,480.09206)" id="path11636" style="fill:#ff0d0d;fill-opacity:1;fill-rule:nonzero;stroke:none;stroke-width:1;stroke-linecap:round;stroke-linejoin:miter;stroke-miterlimit:4;stroke-dasharray:8, 4;stroke-dashoffset:0;stroke-opacity:1" />
    <path d="M 449.44445,97.888885 A 7.0370369,7.0370369 0 1 1 435.37037,97.888885 A 7.0370369,7.0370369 0 1 1 449.44445,97.888885 z" transform="matrix(1.3421052,0,0,1.3421052,-316.97093,419.72169)" id="path11642" style="fill:#ff0d0d;fill-opacity:1;fill-rule:nonzero;stroke:none;stroke-width:1;stroke-linecap:round;stroke-linejoin:miter;stroke-miterlimit:4;stroke-dasharray:8, 4;stroke-dashoffset:0;stroke-opacity:1" />
    <path d="M 449.44445,97.888885 A 7.0370369,7.0370369 0 1 1 435.37037,97.888885 A 7.0370369,7.0370369 0 1 1 449.44445,97.888885 z" transform="matrix(1.3421052,0,0,1.3421052,-240.0536,123.5637)" id="path11697" style="fill:#ff0d0d;fill-opacity:1;fill-rule:nonzero;stroke:none;stroke-width:1;stroke-linecap:round;stroke-linejoin:miter;stroke-miterlimit:4;stroke-dasharray:8, 4;stroke-dashoffset:0;stroke-opacity:1" />
    <path d="M 449.44445,97.888885 A 7.0370369,7.0370369 0 1 1 435.37037,97.888885 A 7.0370369,7.0370369 0 1 1 449.44445,97.888885 z" transform="matrix(1.3421052,0,0,1.3421052,-375.60916,123.5637)" id="path11699" style="fill:#ff0d0d;fill-opacity:1;fill-rule:nonzero;stroke:none;stroke-width:1;stroke-linecap:round;stroke-linejoin:miter;stroke-miterlimit:4;stroke-dasharray:8, 4;stroke-dashoffset:0;stroke-opacity:1" />
    <g transform="translate(-161.23999,216.35983)" id="g11725">
      <path d="M 449.44445,97.888885 A 7.0370369,7.0370369 0 1 1 435.37037,97.888885 A 7.0370369,7.0370369 0 1 1 449.44445,97.888885 z" transform="matrix(1.3421052,0,0,1.3421052,-130.0536,11.711864)" id="path11727" style="opacity:1;fill:#ff0d0d;fill-opacity:1;fill-rule:nonzero;stroke:none;stroke-width:1;stroke-linecap:round;stroke-linejoin:miter;stroke-miterlimit:4;stroke-dasharray:8, 4;stroke-dashoffset:0;stroke-opacity:1" />
      <path d="M 449.44445,97.888885 A 7.0370369,7.0370369 0 1 1 435.37037,97.888885 A 7.0370369,7.0370369 0 1 1 449.44445,97.888885 z" transform="matrix(1.3421052,0,0,1.3421052,-157.27582,37.822969)" id="path11729" style="opacity:1;fill:#ff0d0d;fill-opacity:1;fill-rule:nonzero;stroke:none;stroke-width:1;stroke-linecap:round;stroke-linejoin:miter;stroke-miterlimit:4;stroke-dasharray:8, 4;stroke-dashoffset:0;stroke-opacity:1" />
    </g>
    <path d="M 449.44445,97.888885 A 7.0370369,7.0370369 0 1 1 435.37037,97.888885 A 7.0370369,7.0370369 0 1 1 449.44445,97.888885 z" transform="matrix(1.3421052,0,0,1.3421052,-240.0536,239.48963)" id="path11731" style="fill:#ff0d0d;fill-opacity:1;fill-rule:nonzero;stroke:none;stroke-width:1;stroke-linecap:round;stroke-linejoin:miter;stroke-miterlimit:4;stroke-dasharray:8, 4;stroke-dashoffset:0;stroke-opacity:1" />
    <path d="M 449.44445,97.888885 A 7.0370369,7.0370369 0 1 1 435.37037,97.888885 A 7.0370369,7.0370369 0 1 1 449.44445,97.888885 z" transform="matrix(1.3421052,0,0,1.3421052,-375.60916,239.48963)" id="path11733" style="fill:#ff0d0d;fill-opacity:1;fill-rule:nonzero;stroke:none;stroke-width:1;stroke-linecap:round;stroke-linejoin:miter;stroke-miterlimit:4;stroke-dasharray:8, 4;stroke-dashoffset:0;stroke-opacity:1" />
    <g id="g11742">
      <path d="M 392.59258,161.03703 A 18.518518,18.518518 0 1 1 355.55555,161.03703 A 18.518518,18.518518 0 1 1 392.59258,161.03703 z" transform="translate(2.2222222,3.7037037)" id="path11735" style="opacity:1;fill:#0d11ff;fill-opacity:1;fill-rule:nonzero;stroke:none;stroke-width:1;stroke-linecap:round;stroke-linejoin:miter;stroke-miterlimit:4;stroke-dasharray:none;stroke-dashoffset:0;stroke-opacity:1" />
      <path d="M 367.1752,164.92628 L 367.1752,170.26808 L 370.33926,170.26808 C 371.40045,170.26808 372.18496,170.04998 372.69278,169.61378 C 373.20709,169.17108 373.46425,168.49725 373.46426,167.5923 C 373.46425,166.68085 373.20709,166.01028 372.69278,165.58058 C 372.18496,165.14439 371.40045,164.92629 370.33926,164.92628 L 367.1752,164.92628 M 367.1752,158.93019 L 367.1752,163.32472 L 370.09512,163.32472 C 371.05866,163.32473 371.7748,163.14569 372.24356,162.78761 C 372.71881,162.42304 372.95644,161.86965 372.95645,161.12746 C 372.95644,160.39179 372.71881,159.84166 372.24356,159.47707 C 371.7748,159.1125 371.05866,158.9302 370.09512,158.93019 L 367.1752,158.93019 M 365.20255,157.3091 L 370.24161,157.3091 C 371.74551,157.30911 372.90436,157.62161 373.71817,158.2466 C 374.53196,158.87161 374.93886,159.76028 374.93887,160.91261 C 374.93886,161.80455 374.73053,162.51418 374.31387,163.04152 C 373.8972,163.56887 373.28522,163.89765 372.47794,164.02785 C 373.44798,164.23619 374.19993,164.67239 374.7338,165.33644 C 375.27415,165.994 375.54433,166.81757 375.54434,167.80714 C 375.54433,169.10923 375.10162,170.11509 374.21622,170.82472 C 373.33079,171.53436 372.07103,171.88918 370.43692,171.88918 L 365.20255,171.88918 L 365.20255,157.3091 M 383.80606,166.39113 C 382.35423,166.39113 381.34837,166.55715 380.78848,166.88918 C 380.22858,167.22121 379.94864,167.78762 379.94864,168.58839 C 379.94864,169.22642 380.15697,169.73423 380.57364,170.11183 C 380.99681,170.48293 381.56973,170.66847 382.29239,170.66847 C 383.28848,170.66847 384.086,170.31691 384.68497,169.61378 C 385.29043,168.90415 385.59316,167.9634 385.59317,166.79152 L 385.59317,166.39113 L 383.80606,166.39113 M 387.39005,165.64894 L 387.39005,171.88918 L 385.59317,171.88918 L 385.59317,170.22902 C 385.18301,170.89308 384.67194,171.38462 384.05997,171.70363 C 383.44798,172.01613 382.69928,172.17238 381.81387,172.17238 C 380.69408,172.17238 379.80215,171.85988 379.13809,171.23488 C 378.48054,170.60337 378.15176,169.76027 378.15176,168.70558 C 378.15176,167.47512 378.56192,166.54738 379.38223,165.92238 C 380.20905,165.29739 381.43952,164.98489 383.07364,164.98488 L 385.59317,164.98488 L 385.59317,164.8091 C 385.59316,163.98228 385.31972,163.34426 384.77286,162.89503 C 384.23249,162.43932 383.47077,162.21145 382.4877,162.21144 C 381.8627,162.21145 381.25397,162.28632 380.66153,162.43605 C 380.06908,162.5858 379.49942,162.81041 378.95255,163.10988 L 378.95255,161.44972 C 379.61009,161.19583 380.24811,161.00702 380.86661,160.88332 C 381.48509,160.75312 382.08731,160.68801 382.67325,160.688 C 384.25527,160.68801 385.43691,161.09817 386.21817,161.91847 C 386.99941,162.73879 387.39003,163.98228 387.39005,165.64894" id="text11737" style="font-size:20px;font-style:normal;font-variant:normal;font-weight:normal;font-stretch:normal;fill:#ffffff;fill-opacity:1;stroke:none;stroke-width:1px;stroke-linecap:butt;stroke-linejoin:miter;stroke-opacity:1;font-family:Sans;-inkscape-font-specification:Newspaper" />
    </g>
    <g transform="translate(0,277.77778)" id="g11746">
      <path d="M 392.59258,161.03703 A 18.518518,18.518518 0 1 1 355.55555,161.03703 A 18.518518,18.518518 0 1 1 392.59258,161.03703 z" transform="translate(2.2222222,3.7037037)" id="path11748" style="opacity:1;fill:#0d11ff;fill-opacity:1;fill-rule:nonzero;stroke:none;stroke-width:1;stroke-linecap:round;stroke-linejoin:miter;stroke-miterlimit:4;stroke-dasharray:none;stroke-dashoffset:0;stroke-opacity:1" />
      <path d="M 367.1752,164.92628 L 367.1752,170.26808 L 370.33926,170.26808 C 371.40045,170.26808 372.18496,170.04998 372.69278,169.61378 C 373.20709,169.17108 373.46425,168.49725 373.46426,167.5923 C 373.46425,166.68085 373.20709,166.01028 372.69278,165.58058 C 372.18496,165.14439 371.40045,164.92629 370.33926,164.92628 L 367.1752,164.92628 M 367.1752,158.93019 L 367.1752,163.32472 L 370.09512,163.32472 C 371.05866,163.32473 371.7748,163.14569 372.24356,162.78761 C 372.71881,162.42304 372.95644,161.86965 372.95645,161.12746 C 372.95644,160.39179 372.71881,159.84166 372.24356,159.47707 C 371.7748,159.1125 371.05866,158.9302 370.09512,158.93019 L 367.1752,158.93019 M 365.20255,157.3091 L 370.24161,157.3091 C 371.74551,157.30911 372.90436,157.62161 373.71817,158.2466 C 374.53196,158.87161 374.93886,159.76028 374.93887,160.91261 C 374.93886,161.80455 374.73053,162.51418 374.31387,163.04152 C 373.8972,163.56887 373.28522,163.89765 372.47794,164.02785 C 373.44798,164.23619 374.19993,164.67239 374.7338,165.33644 C 375.27415,165.994 375.54433,166.81757 375.54434,167.80714 C 375.54433,169.10923 375.10162,170.11509 374.21622,170.82472 C 373.33079,171.53436 372.07103,171.88918 370.43692,171.88918 L 365.20255,171.88918 L 365.20255,157.3091 M 383.80606,166.39113 C 382.35423,166.39113 381.34837,166.55715 380.78848,166.88918 C 380.22858,167.22121 379.94864,167.78762 379.94864,168.58839 C 379.94864,169.22642 380.15697,169.73423 380.57364,170.11183 C 380.99681,170.48293 381.56973,170.66847 382.29239,170.66847 C 383.28848,170.66847 384.086,170.31691 384.68497,169.61378 C 385.29043,168.90415 385.59316,167.9634 385.59317,166.79152 L 385.59317,166.39113 L 383.80606,166.39113 M 387.39005,165.64894 L 387.39005,171.88918 L 385.59317,171.88918 L 385.59317,170.22902 C 385.18301,170.89308 384.67194,171.38462 384.05997,171.70363 C 383.44798,172.01613 382.69928,172.17238 381.81387,172.17238 C 380.69408,172.17238 379.80215,171.85988 379.13809,171.23488 C 378.48054,170.60337 378.15176,169.76027 378.15176,168.70558 C 378.15176,167.47512 378.56192,166.54738 379.38223,165.92238 C 380.20905,165.29739 381.43952,164.98489 383.07364,164.98488 L 385.59317,164.98488 L 385.59317,164.8091 C 385.59316,163.98228 385.31972,163.34426 384.77286,162.89503 C 384.23249,162.43932 383.47077,162.21145 382.4877,162.21144 C 381.8627,162.21145 381.25397,162.28632 380.66153,162.43605 C 380.06908,162.5858 379.49942,162.81041 378.95255,163.10988 L 378.95255,161.44972 C 379.61009,161.19583 380.24811,161.00702 380.86661,160.88332 C 381.48509,160.75312 382.08731,160.68801 382.67325,160.688 C 384.25527,160.68801 385.43691,161.09817 386.21817,161.91847 C 386.99941,162.73879 387.39003,163.98228 387.39005,165.64894" id="path11750" style="font-size:20px;font-style:normal;font-variant:normal;font-weight:normal;font-stretch:normal;fill:#ffffff;fill-opacity:1;stroke:none;stroke-width:1px;stroke-linecap:butt;stroke-linejoin:miter;stroke-opacity:1;font-family:Sans;-inkscape-font-specification:Newspaper" />
    </g>
    <g transform="translate(0.5582513,1.8518519)" id="g11761">
      <path d="M 390.74074,299.92593 A 13.333333,13.333333 0 1 1 364.07408,299.92593 A 13.333333,13.333333 0 1 1 390.74074,299.92593 z" transform="translate(-1.6693726,4.1914062)" id="path11754" style="opacity:1;fill:#eb00da;fill-opacity:1;fill-rule:nonzero;stroke:none;stroke-width:1;stroke-linecap:round;stroke-linejoin:miter;stroke-miterlimit:4;stroke-dasharray:none;stroke-dashoffset:0;stroke-opacity:1" />
      <path d="M 369.59058,296.8273 L 371.70972,296.8273 L 375.75269,302.82339 L 379.76636,296.8273 L 381.8855,296.8273 L 376.72925,304.46402 L 376.72925,311.40738 L 374.74683,311.40738 L 374.74683,304.46402 L 369.59058,296.8273" id="text11756" style="font-size:20px;font-style:normal;font-variant:normal;font-weight:normal;font-stretch:normal;fill:#ffffff;fill-opacity:1;stroke:none;stroke-width:1px;stroke-linecap:butt;stroke-linejoin:miter;stroke-opacity:1;font-family:Sans;-inkscape-font-specification:Newspaper" />
    </g>
    </g>
</svg>