<?xml version="1.0" encoding="UTF-8" standalone="no"?>
<!-- Created with Inkscape (http://www.inkscape.org/) -->
<svg
   xmlns:svg="http://www.w3.org/2000/svg"
   xmlns="http://www.w3.org/2000/svg"
   version="1.0"
   width="428.61768"
   height="608.30255"
   id="svg10350"
   style="display:inline">
  <defs
     id="defs10353" />
  <g
     transform="translate(-44.530452,-12.611108)"
     id="layer13">
    <path
       d="M 291.2963,95.784191 L 317.96297,69.74074 L 463.25411,69.74074 L 436.58745,95.784191 L 291.2963,95.784191 z"
       id="path10369"
       style="fill:none;fill-rule:evenodd;stroke:#000000;stroke-width:1;stroke-linecap:butt;stroke-linejoin:miter;marker-end:none;stroke-miterlimit:4;stroke-dasharray:3, 3;stroke-dashoffset:0;stroke-opacity:1" />
    <path
       d="M 436.59722,95.724535 L 436.59722,538.25926"
       id="path10391"
       style="fill:none;fill-rule:evenodd;stroke:#000000;stroke-width:1;stroke-linecap:butt;stroke-linejoin:miter;stroke-miterlimit:4;stroke-dasharray:3, 3;stroke-dashoffset:0;stroke-opacity:1" />
    <path
       d="M 463.83419,69.461557 L 463.83419,511.68518"
       id="path10393"
       style="fill:none;fill-rule:evenodd;stroke:#000000;stroke-width:1;stroke-linecap:butt;stroke-linejoin:miter;stroke-miterlimit:4;stroke-dasharray:3, 3;stroke-dashoffset:0;stroke-opacity:1" />
    <path
       d="M 318.22257,69.461557 L 318.22257,511.68518"
       id="path10399"
       style="fill:none;fill-rule:evenodd;stroke:#000000;stroke-width:1;stroke-linecap:butt;stroke-linejoin:miter;stroke-miterlimit:4;stroke-dasharray:3, 3;stroke-dashoffset:0;stroke-opacity:1" />
    <path
       d="M 291.2963,538.13558 L 317.96297,512.09213 L 463.25411,512.09213 L 436.58745,538.13558 L 291.2963,538.13558 z"
       id="path10395"
       style="fill:none;fill-rule:evenodd;stroke:#000000;stroke-width:1;stroke-linecap:butt;stroke-linejoin:miter;stroke-miterlimit:4;stroke-dasharray:3, 3;stroke-dashoffset:0;stroke-opacity:1" />
    <path
       d="M 290.9856,538.25926 L 290.9856,95.724535 L 290.9856,22.333332"
       id="path10397"
       style="fill:none;fill-rule:evenodd;stroke:#000000;stroke-width:1;stroke-linecap:butt;stroke-linejoin:miter;stroke-miterlimit:4;stroke-dasharray:3, 3;stroke-dashoffset:0;stroke-opacity:1" />
    <g
       transform="translate(-145.18519,294.87472)"
       id="g11550">
      <path
         d="M 449.44445,97.888885 A 7.0370369,7.0370369 0 1 1 435.37037,97.888885 A 7.0370369,7.0370369 0 1 1 449.44445,97.888885 z"
         transform="matrix(0.868421,0,0,0.868421,52.285577,10.47271)"
         id="path11552"
         style="opacity:1;fill:#ffd40d;fill-opacity:1;fill-rule:nonzero;stroke:none;stroke-width:1;stroke-linecap:round;stroke-linejoin:miter;stroke-miterlimit:4;stroke-dasharray:8, 4;stroke-dashoffset:0;stroke-opacity:1" />
      <path
         d="M 449.44445,97.888885 A 7.0370369,7.0370369 0 1 1 435.37037,97.888885 A 7.0370369,7.0370369 0 1 1 449.44445,97.888885 z"
         transform="matrix(0.868421,0,0,0.868421,79.5078,-15.638401)"
         id="path11554"
         style="opacity:1;fill:#ffd40d;fill-opacity:1;fill-rule:nonzero;stroke:none;stroke-width:1;stroke-linecap:round;stroke-linejoin:miter;stroke-miterlimit:4;stroke-dasharray:8, 4;stroke-dashoffset:0;stroke-opacity:1" />
    </g>
    <g
       transform="matrix(-1,0,0,-1,582.40741,631.49536)"
       id="g11715">
      <path
         d="M 227.96297,260.2963 L 279.44445,271.96297 L 364.81482,260.48148 L 307.22222,245.11111 L 227.96297,260.2963 z"
         id="path11717"
         style="fill:none;fill-rule:evenodd;stroke:#000000;stroke-width:1px;stroke-linecap:butt;stroke-linejoin:miter;stroke-opacity:1" />
      <path
         d="M 279.25926,272.14815 L 307.22222,245.2963"
         id="path11719"
         style="fill:none;fill-rule:evenodd;stroke:#000000;stroke-width:1px;stroke-linecap:butt;stroke-linejoin:miter;stroke-opacity:1" />
      <path
         d="M 365.18519,260.48149 L 291.66667,167.7037 L 228.14815,259.74074"
         id="path11721"
         style="fill:none;fill-rule:evenodd;stroke:#000000;stroke-width:1px;stroke-linecap:butt;stroke-linejoin:miter;stroke-opacity:1" />
      <path
         d="M 279.25926,271.77778 L 291.48148,167.7037 L 306.85185,245.11111"
         id="path11723"
         style="fill:none;fill-rule:evenodd;stroke:#000000;stroke-width:1px;stroke-linecap:butt;stroke-linejoin:miter;stroke-opacity:1" />
    </g>
    <path
       d="M 277.27888,551.55744 L 318.27668,511.77575"
       id="path11651"
       style="fill:none;fill-rule:evenodd;stroke:#000000;stroke-width:1px;stroke-linecap:butt;stroke-linejoin:miter;stroke-opacity:1" />
    <g
       id="g11709">
      <path
         d="M 217.40741,255.11111 L 275.74075,270.66667 L 354.25926,254.92592 L 302.59259,244 L 217.40741,255.11111 z"
         id="path11701"
         style="fill:none;fill-rule:evenodd;stroke:#000000;stroke-width:1px;stroke-linecap:butt;stroke-linejoin:miter;stroke-opacity:1" />
      <path
         d="M 275.55556,270.48148 L 302.40741,244"
         id="path11703"
         style="fill:none;fill-rule:evenodd;stroke:#000000;stroke-width:1px;stroke-linecap:butt;stroke-linejoin:miter;stroke-opacity:1" />
      <path
         d="M 354.25926,254.92593 L 291.66667,167.7037 L 217.59259,254.92593"
         id="path11705"
         style="fill:none;fill-rule:evenodd;stroke:#000000;stroke-width:1px;stroke-linecap:butt;stroke-linejoin:miter;stroke-opacity:1" />
      <path
         d="M 275.55556,270.85185 L 291.48148,167.7037 L 302.03704,244"
         id="path11707"
         style="fill:none;fill-rule:evenodd;stroke:#000000;stroke-width:1px;stroke-linecap:butt;stroke-linejoin:miter;stroke-opacity:1" />
    </g>
    <g
       transform="translate(-15.989471,100.4339)"
       id="g11500">
      <path
         d="M 449.44445,97.888885 A 7.0370369,7.0370369 0 1 1 435.37037,97.888885 A 7.0370369,7.0370369 0 1 1 449.44445,97.888885 z"
         transform="matrix(1.3421052,0,0,1.3421052,-130.0536,11.711864)"
         id="path11502"
         style="opacity:1;fill:#ff0d0d;fill-opacity:1;fill-rule:nonzero;stroke:none;stroke-width:1;stroke-linecap:round;stroke-linejoin:miter;stroke-miterlimit:4;stroke-dasharray:8, 4;stroke-dashoffset:0;stroke-opacity:1" />
      <path
         d="M 449.44445,97.888885 A 7.0370369,7.0370369 0 1 1 435.37037,97.888885 A 7.0370369,7.0370369 0 1 1 449.44445,97.888885 z"
         transform="matrix(1.3421052,0,0,1.3421052,-157.27582,37.822969)"
         id="path11504"
         style="opacity:1;fill:#ff0d0d;fill-opacity:1;fill-rule:nonzero;stroke:none;stroke-width:1;stroke-linecap:round;stroke-linejoin:miter;stroke-miterlimit:4;stroke-dasharray:8, 4;stroke-dashoffset:0;stroke-opacity:1" />
    </g>
    <g
       id="g11481">
      <path
         d="M 449.44445,97.888885 A 7.0370369,7.0370369 0 1 1 435.37037,97.888885 A 7.0370369,7.0370369 0 1 1 449.44445,97.888885 z"
         transform="matrix(0.868421,0,0,0.868421,52.285577,10.47271)"
         id="path11421"
         style="fill:#ffd40d;fill-opacity:1;fill-rule:nonzero;stroke:none;stroke-width:1;stroke-linecap:round;stroke-linejoin:miter;stroke-miterlimit:4;stroke-dasharray:8, 4;stroke-dashoffset:0;stroke-opacity:1" />
      <path
         d="M 449.44445,97.888885 A 7.0370369,7.0370369 0 1 1 435.37037,97.888885 A 7.0370369,7.0370369 0 1 1 449.44445,97.888885 z"
         transform="matrix(0.868421,0,0,0.868421,79.5078,-15.638401)"
         id="path11423"
         style="fill:#ffd40d;fill-opacity:1;fill-rule:nonzero;stroke:none;stroke-width:1;stroke-linecap:round;stroke-linejoin:miter;stroke-miterlimit:4;stroke-dasharray:8, 4;stroke-dashoffset:0;stroke-opacity:1" />
      <path
         d="M 449.44445,97.888885 A 7.0370369,7.0370369 0 1 1 435.37037,97.888885 A 7.0370369,7.0370369 0 1 1 449.44445,97.888885 z"
         transform="matrix(1.3421052,0,0,1.3421052,-143.66471,-48.951263)"
         id="path11425"
         style="fill:#ff0d0d;fill-opacity:1;fill-rule:nonzero;stroke:none;stroke-width:1;stroke-linecap:round;stroke-linejoin:miter;stroke-miterlimit:4;stroke-dasharray:8, 4;stroke-dashoffset:0;stroke-opacity:1" />
    </g>
    <g
       transform="translate(0,1.5258789e-5)"
       id="g11486">
      <path
         d="M 449.44445,97.888885 A 7.0370369,7.0370369 0 1 1 435.37037,97.888885 A 7.0370369,7.0370369 0 1 1 449.44445,97.888885 z"
         transform="matrix(0.868421,0,0,0.868421,52.285577,157.91005)"
         id="path11447"
         style="fill:#ffd40d;fill-opacity:1;fill-rule:nonzero;stroke:none;stroke-width:1;stroke-linecap:round;stroke-linejoin:miter;stroke-miterlimit:4;stroke-dasharray:8, 4;stroke-dashoffset:0;stroke-opacity:1" />
      <path
         d="M 449.44445,97.888885 A 7.0370369,7.0370369 0 1 1 435.37037,97.888885 A 7.0370369,7.0370369 0 1 1 449.44445,97.888885 z"
         transform="matrix(0.868421,0,0,0.868421,79.5078,131.79894)"
         id="path11449"
         style="fill:#ffd40d;fill-opacity:1;fill-rule:nonzero;stroke:none;stroke-width:1;stroke-linecap:round;stroke-linejoin:miter;stroke-miterlimit:4;stroke-dasharray:8, 4;stroke-dashoffset:0;stroke-opacity:1" />
    </g>
    <g
       transform="translate(0,294.87472)"
       id="g11453">
      <path
         d="M 449.44445,97.888885 A 7.0370369,7.0370369 0 1 1 435.37037,97.888885 A 7.0370369,7.0370369 0 1 1 449.44445,97.888885 z"
         transform="matrix(0.868421,0,0,0.868421,52.285577,10.47271)"
         id="path11455"
         style="opacity:1;fill:#ffd40d;fill-opacity:1;fill-rule:nonzero;stroke:none;stroke-width:1;stroke-linecap:round;stroke-linejoin:miter;stroke-miterlimit:4;stroke-dasharray:8, 4;stroke-dashoffset:0;stroke-opacity:1" />
      <path
         d="M 449.44445,97.888885 A 7.0370369,7.0370369 0 1 1 435.37037,97.888885 A 7.0370369,7.0370369 0 1 1 449.44445,97.888885 z"
         transform="matrix(0.868421,0,0,0.868421,79.5078,-15.638401)"
         id="path11457"
         style="opacity:1;fill:#ffd40d;fill-opacity:1;fill-rule:nonzero;stroke:none;stroke-width:1;stroke-linecap:round;stroke-linejoin:miter;stroke-miterlimit:4;stroke-dasharray:8, 4;stroke-dashoffset:0;stroke-opacity:1" />
    </g>
    <g
       transform="translate(0,442.31208)"
       id="g11461">
      <path
         d="M 449.44445,97.888885 A 7.0370369,7.0370369 0 1 1 435.37037,97.888885 A 7.0370369,7.0370369 0 1 1 449.44445,97.888885 z"
         transform="matrix(0.868421,0,0,0.868421,52.285577,10.47271)"
         id="path11463"
         style="opacity:1;fill:#ffd40d;fill-opacity:1;fill-rule:nonzero;stroke:none;stroke-width:1;stroke-linecap:round;stroke-linejoin:miter;stroke-miterlimit:4;stroke-dasharray:8, 4;stroke-dashoffset:0;stroke-opacity:1" />
      <path
         d="M 449.44445,97.888885 A 7.0370369,7.0370369 0 1 1 435.37037,97.888885 A 7.0370369,7.0370369 0 1 1 449.44445,97.888885 z"
         transform="matrix(0.868421,0,0,0.868421,79.5078,-15.638401)"
         id="path11465"
         style="opacity:1;fill:#ffd40d;fill-opacity:1;fill-rule:nonzero;stroke:none;stroke-width:1;stroke-linecap:round;stroke-linejoin:miter;stroke-miterlimit:4;stroke-dasharray:8, 4;stroke-dashoffset:0;stroke-opacity:1" />
      <path
         d="M 449.44445,97.888885 A 7.0370369,7.0370369 0 1 1 435.37037,97.888885 A 7.0370369,7.0370369 0 1 1 449.44445,97.888885 z"
         transform="matrix(1.3421052,0,0,1.3421052,-143.66471,-48.951263)"
         id="path11467"
         style="opacity:1;fill:#ff0d0d;fill-opacity:1;fill-rule:nonzero;stroke:none;stroke-width:1;stroke-linecap:round;stroke-linejoin:miter;stroke-miterlimit:4;stroke-dasharray:8, 4;stroke-dashoffset:0;stroke-opacity:1" />
    </g>
    <g
       transform="translate(0,-1.5258789e-5)"
       id="g11490">
      <path
         d="M 449.44445,97.888885 A 7.0370369,7.0370369 0 1 1 435.37037,97.888885 A 7.0370369,7.0370369 0 1 1 449.44445,97.888885 z"
         transform="matrix(1.3421052,0,0,1.3421052,-130.0536,11.711864)"
         id="path11469"
         style="opacity:1;fill:#ff0d0d;fill-opacity:1;fill-rule:nonzero;stroke:none;stroke-width:1;stroke-linecap:round;stroke-linejoin:miter;stroke-miterlimit:4;stroke-dasharray:8, 4;stroke-dashoffset:0;stroke-opacity:1" />
      <path
         d="M 449.44445,97.888885 A 7.0370369,7.0370369 0 1 1 435.37037,97.888885 A 7.0370369,7.0370369 0 1 1 449.44445,97.888885 z"
         transform="matrix(1.3421052,0,0,1.3421052,-157.27582,37.822969)"
         id="path11479"
         style="opacity:1;fill:#ff0d0d;fill-opacity:1;fill-rule:nonzero;stroke:none;stroke-width:1;stroke-linecap:round;stroke-linejoin:miter;stroke-miterlimit:4;stroke-dasharray:8, 4;stroke-dashoffset:0;stroke-opacity:1" />
    </g>
    <g
       transform="translate(0,294.87471)"
       id="g11494">
      <path
         d="M 449.44445,97.888885 A 7.0370369,7.0370369 0 1 1 435.37037,97.888885 A 7.0370369,7.0370369 0 1 1 449.44445,97.888885 z"
         transform="matrix(1.3421052,0,0,1.3421052,-130.0536,11.711864)"
         id="path11496"
         style="opacity:1;fill:#ff0d0d;fill-opacity:1;fill-rule:nonzero;stroke:none;stroke-width:1;stroke-linecap:round;stroke-linejoin:miter;stroke-miterlimit:4;stroke-dasharray:8, 4;stroke-dashoffset:0;stroke-opacity:1" />
      <path
         d="M 449.44445,97.888885 A 7.0370369,7.0370369 0 1 1 435.37037,97.888885 A 7.0370369,7.0370369 0 1 1 449.44445,97.888885 z"
         transform="matrix(1.3421052,0,0,1.3421052,-157.27582,37.822969)"
         id="path11498"
         style="opacity:1;fill:#ff0d0d;fill-opacity:1;fill-rule:nonzero;stroke:none;stroke-width:1;stroke-linecap:round;stroke-linejoin:miter;stroke-miterlimit:4;stroke-dasharray:8, 4;stroke-dashoffset:0;stroke-opacity:1" />
    </g>
    <g
       transform="translate(-15.989471,209.67784)"
       id="g11506">
      <path
         d="M 449.44445,97.888885 A 7.0370369,7.0370369 0 1 1 435.37037,97.888885 A 7.0370369,7.0370369 0 1 1 449.44445,97.888885 z"
         transform="matrix(1.3421052,0,0,1.3421052,-130.0536,11.711864)"
         id="path11508"
         style="opacity:1;fill:#ff0d0d;fill-opacity:1;fill-rule:nonzero;stroke:none;stroke-width:1;stroke-linecap:round;stroke-linejoin:miter;stroke-miterlimit:4;stroke-dasharray:8, 4;stroke-dashoffset:0;stroke-opacity:1" />
      <path
         d="M 449.44445,97.888885 A 7.0370369,7.0370369 0 1 1 435.37037,97.888885 A 7.0370369,7.0370369 0 1 1 449.44445,97.888885 z"
         transform="matrix(1.3421052,0,0,1.3421052,-157.27582,37.822969)"
         id="path11510"
         style="opacity:1;fill:#ff0d0d;fill-opacity:1;fill-rule:nonzero;stroke:none;stroke-width:1;stroke-linecap:round;stroke-linejoin:miter;stroke-miterlimit:4;stroke-dasharray:8, 4;stroke-dashoffset:0;stroke-opacity:1" />
    </g>
    <g
       transform="translate(-161.23999,100.4339)"
       id="g11673">
      <path
         d="M 449.44445,97.888885 A 7.0370369,7.0370369 0 1 1 435.37037,97.888885 A 7.0370369,7.0370369 0 1 1 449.44445,97.888885 z"
         transform="matrix(1.3421052,0,0,1.3421052,-130.0536,11.711864)"
         id="path11675"
         style="opacity:1;fill:#ff0d0d;fill-opacity:1;fill-rule:nonzero;stroke:none;stroke-width:1;stroke-linecap:round;stroke-linejoin:miter;stroke-miterlimit:4;stroke-dasharray:8, 4;stroke-dashoffset:0;stroke-opacity:1" />
      <path
         d="M 449.44445,97.888885 A 7.0370369,7.0370369 0 1 1 435.37037,97.888885 A 7.0370369,7.0370369 0 1 1 449.44445,97.888885 z"
         transform="matrix(1.3421052,0,0,1.3421052,-157.27582,37.822969)"
         id="path11677"
         style="opacity:1;fill:#ff0d0d;fill-opacity:1;fill-rule:nonzero;stroke:none;stroke-width:1;stroke-linecap:round;stroke-linejoin:miter;stroke-miterlimit:4;stroke-dasharray:8, 4;stroke-dashoffset:0;stroke-opacity:1" />
    </g>
    <g
       transform="translate(-145.18519,1.5258789e-5)"
       id="g11544">
      <path
         d="M 449.44445,97.888885 A 7.0370369,7.0370369 0 1 1 435.37037,97.888885 A 7.0370369,7.0370369 0 1 1 449.44445,97.888885 z"
         transform="matrix(0.868421,0,0,0.868421,52.285577,157.91005)"
         id="path11546"
         style="fill:#ffd40d;fill-opacity:1;fill-rule:nonzero;stroke:none;stroke-width:1;stroke-linecap:round;stroke-linejoin:miter;stroke-miterlimit:4;stroke-dasharray:8, 4;stroke-dashoffset:0;stroke-opacity:1" />
      <path
         d="M 449.44445,97.888885 A 7.0370369,7.0370369 0 1 1 435.37037,97.888885 A 7.0370369,7.0370369 0 1 1 449.44445,97.888885 z"
         transform="matrix(0.868421,0,0,0.868421,79.5078,131.79894)"
         id="path11548"
         style="fill:#ffd40d;fill-opacity:1;fill-rule:nonzero;stroke:none;stroke-width:1;stroke-linecap:round;stroke-linejoin:miter;stroke-miterlimit:4;stroke-dasharray:8, 4;stroke-dashoffset:0;stroke-opacity:1" />
    </g>
    <path
       d="M 290.67526,464.78763 L 304.37896,524.97281 L 291.04563,612.00986 L 276.97156,551.26912 L 290.49008,464.60244"
       id="path11632"
       style="fill:none;fill-rule:evenodd;stroke:#000000;stroke-width:1;stroke-linecap:butt;stroke-linejoin:miter;stroke-miterlimit:4;stroke-dasharray:none;stroke-dashoffset:0;stroke-opacity:1" />
    <g
       transform="translate(-145.18519,442.31208)"
       id="g11556">
      <path
         d="M 449.44445,97.888885 A 7.0370369,7.0370369 0 1 1 435.37037,97.888885 A 7.0370369,7.0370369 0 1 1 449.44445,97.888885 z"
         transform="matrix(0.868421,0,0,0.868421,52.285577,10.47271)"
         id="path11558"
         style="opacity:1;fill:#ffd40d;fill-opacity:1;fill-rule:nonzero;stroke:none;stroke-width:1;stroke-linecap:round;stroke-linejoin:miter;stroke-miterlimit:4;stroke-dasharray:8, 4;stroke-dashoffset:0;stroke-opacity:1" />
      <path
         d="M 449.44445,97.888885 A 7.0370369,7.0370369 0 1 1 435.37037,97.888885 A 7.0370369,7.0370369 0 1 1 449.44445,97.888885 z"
         transform="matrix(0.868421,0,0,0.868421,79.5078,-15.638401)"
         id="path11560"
         style="opacity:1;fill:#ffd40d;fill-opacity:1;fill-rule:nonzero;stroke:none;stroke-width:1;stroke-linecap:round;stroke-linejoin:miter;stroke-miterlimit:4;stroke-dasharray:8, 4;stroke-dashoffset:0;stroke-opacity:1" />
      <path
         d="M 449.44445,97.888885 A 7.0370369,7.0370369 0 1 1 435.37037,97.888885 A 7.0370369,7.0370369 0 1 1 449.44445,97.888885 z"
         transform="matrix(1.3421052,0,0,1.3421052,-143.66471,-48.951263)"
         id="path11562"
         style="opacity:1;fill:#ff0d0d;fill-opacity:1;fill-rule:nonzero;stroke:none;stroke-width:1;stroke-linecap:round;stroke-linejoin:miter;stroke-miterlimit:4;stroke-dasharray:8, 4;stroke-dashoffset:0;stroke-opacity:1" />
    </g>
    <path
       d="M 449.44445,97.888885 A 7.0370369,7.0370369 0 1 1 435.37037,97.888885 A 7.0370369,7.0370369 0 1 1 449.44445,97.888885 z"
       transform="matrix(1.3421052,0,0,1.3421052,-275.23879,11.711849)"
       id="path11566"
       style="fill:#ff0d0d;fill-opacity:1;fill-rule:nonzero;stroke:none;stroke-width:1;stroke-linecap:round;stroke-linejoin:miter;stroke-miterlimit:4;stroke-dasharray:8, 4;stroke-dashoffset:0;stroke-opacity:1" />
    <g
       transform="translate(-145.18519,294.87471)"
       id="g11570">
      <path
         d="M 449.44445,97.888885 A 7.0370369,7.0370369 0 1 1 435.37037,97.888885 A 7.0370369,7.0370369 0 1 1 449.44445,97.888885 z"
         transform="matrix(1.3421052,0,0,1.3421052,-130.0536,11.711864)"
         id="path11572"
         style="opacity:1;fill:#ff0d0d;fill-opacity:1;fill-rule:nonzero;stroke:none;stroke-width:1;stroke-linecap:round;stroke-linejoin:miter;stroke-miterlimit:4;stroke-dasharray:8, 4;stroke-dashoffset:0;stroke-opacity:1" />
      <path
         d="M 449.44445,97.888885 A 7.0370369,7.0370369 0 1 1 435.37037,97.888885 A 7.0370369,7.0370369 0 1 1 449.44445,97.888885 z"
         transform="matrix(1.3421052,0,0,1.3421052,-157.27582,37.822969)"
         id="path11574"
         style="opacity:1;fill:#ff0d0d;fill-opacity:1;fill-rule:nonzero;stroke:none;stroke-width:1;stroke-linecap:round;stroke-linejoin:miter;stroke-miterlimit:4;stroke-dasharray:8, 4;stroke-dashoffset:0;stroke-opacity:1" />
    </g>
    <path
       d="M 277.27888,109.35381 L 318.27668,69.572122"
       id="path11607"
       style="fill:none;fill-rule:evenodd;stroke:#000000;stroke-width:1px;stroke-linecap:butt;stroke-linejoin:miter;stroke-opacity:1" />
    <path
       d="M 449.44445,97.888885 A 7.0370369,7.0370369 0 1 1 435.37037,97.888885 A 7.0370369,7.0370369 0 1 1 449.44445,97.888885 z"
       transform="matrix(0.868421,0,0,0.868421,-65.67739,-15.638401)"
       id="path11540"
       style="fill:#ffd40d;fill-opacity:1;fill-rule:nonzero;stroke:none;stroke-width:1;stroke-linecap:round;stroke-linejoin:miter;stroke-miterlimit:4;stroke-dasharray:8, 4;stroke-dashoffset:0;stroke-opacity:1" />
    <path
       d="M 290.74074,22.518517 L 304.44444,82.703703 L 291.11111,169.74074 L 277.03704,109 L 290.55556,22.333332"
       id="path11609"
       style="fill:none;fill-rule:evenodd;stroke:#000000;stroke-width:1;stroke-linecap:butt;stroke-linejoin:miter;stroke-miterlimit:4;stroke-dasharray:none;stroke-dashoffset:0;stroke-opacity:1" />
    <g
       id="g11611">
      <path
         d="M 449.44445,97.888885 A 7.0370369,7.0370369 0 1 1 435.37037,97.888885 A 7.0370369,7.0370369 0 1 1 449.44445,97.888885 z"
         transform="matrix(1.3421052,0,0,1.3421052,-302.46101,37.822954)"
         id="path11568"
         style="fill:#ff0d0d;fill-opacity:1;fill-rule:nonzero;stroke:none;stroke-width:1;stroke-linecap:round;stroke-linejoin:miter;stroke-miterlimit:4;stroke-dasharray:8, 4;stroke-dashoffset:0;stroke-opacity:1" />
      <path
         d="M 449.44445,97.888885 A 7.0370369,7.0370369 0 1 1 435.37037,97.888885 A 7.0370369,7.0370369 0 1 1 449.44445,97.888885 z"
         transform="matrix(1.3421052,0,0,1.3421052,-303.29435,-109.32163)"
         id="path11601"
         style="fill:#ff0d0d;fill-opacity:1;fill-rule:nonzero;stroke:none;stroke-width:1;stroke-linecap:round;stroke-linejoin:miter;stroke-miterlimit:4;stroke-dasharray:8, 4;stroke-dashoffset:0;stroke-opacity:1" />
      <path
         d="M 449.44445,97.888885 A 7.0370369,7.0370369 0 1 1 435.37037,97.888885 A 7.0370369,7.0370369 0 1 1 449.44445,97.888885 z"
         transform="matrix(0.868421,0,0,0.868421,-92.899613,10.47271)"
         id="path11538"
         style="fill:#ffd40d;fill-opacity:1;fill-rule:nonzero;stroke:none;stroke-width:1;stroke-linecap:round;stroke-linejoin:miter;stroke-miterlimit:4;stroke-dasharray:8, 4;stroke-dashoffset:0;stroke-opacity:1" />
      <path
         d="M 449.44445,97.888885 A 7.0370369,7.0370369 0 1 1 435.37037,97.888885 A 7.0370369,7.0370369 0 1 1 449.44445,97.888885 z"
         transform="matrix(1.3421052,0,0,1.3421052,-316.90546,-22.547417)"
         id="path11603"
         style="fill:#ff0d0d;fill-opacity:1;fill-rule:nonzero;stroke:none;stroke-width:1;stroke-linecap:round;stroke-linejoin:miter;stroke-miterlimit:4;stroke-dasharray:8, 4;stroke-dashoffset:0;stroke-opacity:1" />
      <path
         d="M 449.44445,97.888885 A 7.0370369,7.0370369 0 1 1 435.37037,97.888885 A 7.0370369,7.0370369 0 1 1 449.44445,97.888885 z"
         transform="matrix(1.3421052,0,0,1.3421052,-288.8499,-48.951263)"
         id="path11542"
         style="fill:#ff0d0d;fill-opacity:1;fill-rule:nonzero;stroke:none;stroke-width:1;stroke-linecap:round;stroke-linejoin:miter;stroke-miterlimit:4;stroke-dasharray:8, 4;stroke-dashoffset:0;stroke-opacity:1" />
    </g>
    <path
       d="M 449.44445,97.888885 A 7.0370369,7.0370369 0 1 1 435.37037,97.888885 A 7.0370369,7.0370369 0 1 1 449.44445,97.888885 z"
       transform="matrix(1.3421052,0,0,1.3421052,-302.52648,480.09206)"
       id="path11636"
       style="fill:#ff0d0d;fill-opacity:1;fill-rule:nonzero;stroke:none;stroke-width:1;stroke-linecap:round;stroke-linejoin:miter;stroke-miterlimit:4;stroke-dasharray:8, 4;stroke-dashoffset:0;stroke-opacity:1" />
    <path
       d="M 449.44445,97.888885 A 7.0370369,7.0370369 0 1 1 435.37037,97.888885 A 7.0370369,7.0370369 0 1 1 449.44445,97.888885 z"
       transform="matrix(1.3421052,0,0,1.3421052,-316.97093,419.72169)"
       id="path11642"
       style="fill:#ff0d0d;fill-opacity:1;fill-rule:nonzero;stroke:none;stroke-width:1;stroke-linecap:round;stroke-linejoin:miter;stroke-miterlimit:4;stroke-dasharray:8, 4;stroke-dashoffset:0;stroke-opacity:1" />
    <path
       d="M 449.44445,97.888885 A 7.0370369,7.0370369 0 1 1 435.37037,97.888885 A 7.0370369,7.0370369 0 1 1 449.44445,97.888885 z"
       transform="matrix(1.3421052,0,0,1.3421052,-240.0536,123.5637)"
       id="path11697"
       style="fill:#ff0d0d;fill-opacity:1;fill-rule:nonzero;stroke:none;stroke-width:1;stroke-linecap:round;stroke-linejoin:miter;stroke-miterlimit:4;stroke-dasharray:8, 4;stroke-dashoffset:0;stroke-opacity:1" />
    <path
       d="M 449.44445,97.888885 A 7.0370369,7.0370369 0 1 1 435.37037,97.888885 A 7.0370369,7.0370369 0 1 1 449.44445,97.888885 z"
       transform="matrix(1.3421052,0,0,1.3421052,-375.60916,123.5637)"
       id="path11699"
       style="fill:#ff0d0d;fill-opacity:1;fill-rule:nonzero;stroke:none;stroke-width:1;stroke-linecap:round;stroke-linejoin:miter;stroke-miterlimit:4;stroke-dasharray:8, 4;stroke-dashoffset:0;stroke-opacity:1" />
    <g
       transform="translate(-161.23999,216.35983)"
       id="g11725">
      <path
         d="M 449.44445,97.888885 A 7.0370369,7.0370369 0 1 1 435.37037,97.888885 A 7.0370369,7.0370369 0 1 1 449.44445,97.888885 z"
         transform="matrix(1.3421052,0,0,1.3421052,-130.0536,11.711864)"
         id="path11727"
         style="opacity:1;fill:#ff0d0d;fill-opacity:1;fill-rule:nonzero;stroke:none;stroke-width:1;stroke-linecap:round;stroke-linejoin:miter;stroke-miterlimit:4;stroke-dasharray:8, 4;stroke-dashoffset:0;stroke-opacity:1" />
      <path
         d="M 449.44445,97.888885 A 7.0370369,7.0370369 0 1 1 435.37037,97.888885 A 7.0370369,7.0370369 0 1 1 449.44445,97.888885 z"
         transform="matrix(1.3421052,0,0,1.3421052,-157.27582,37.822969)"
         id="path11729"
         style="opacity:1;fill:#ff0d0d;fill-opacity:1;fill-rule:nonzero;stroke:none;stroke-width:1;stroke-linecap:round;stroke-linejoin:miter;stroke-miterlimit:4;stroke-dasharray:8, 4;stroke-dashoffset:0;stroke-opacity:1" />
    </g>
    <path
       d="M 449.44445,97.888885 A 7.0370369,7.0370369 0 1 1 435.37037,97.888885 A 7.0370369,7.0370369 0 1 1 449.44445,97.888885 z"
       transform="matrix(1.3421052,0,0,1.3421052,-240.0536,239.48963)"
       id="path11731"
       style="fill:#ff0d0d;fill-opacity:1;fill-rule:nonzero;stroke:none;stroke-width:1;stroke-linecap:round;stroke-linejoin:miter;stroke-miterlimit:4;stroke-dasharray:8, 4;stroke-dashoffset:0;stroke-opacity:1" />
    <path
       d="M 449.44445,97.888885 A 7.0370369,7.0370369 0 1 1 435.37037,97.888885 A 7.0370369,7.0370369 0 1 1 449.44445,97.888885 z"
       transform="matrix(1.3421052,0,0,1.3421052,-375.60916,239.48963)"
       id="path11733"
       style="fill:#ff0d0d;fill-opacity:1;fill-rule:nonzero;stroke:none;stroke-width:1;stroke-linecap:round;stroke-linejoin:miter;stroke-miterlimit:4;stroke-dasharray:8, 4;stroke-dashoffset:0;stroke-opacity:1" />
    <g
       id="g11742">
      <path
         d="M 392.59258,161.03703 A 18.518518,18.518518 0 1 1 355.55555,161.03703 A 18.518518,18.518518 0 1 1 392.59258,161.03703 z"
         transform="translate(2.2222222,3.7037037)"
         id="path11735"
         style="opacity:1;fill:#0d11ff;fill-opacity:1;fill-rule:nonzero;stroke:none;stroke-width:1;stroke-linecap:round;stroke-linejoin:miter;stroke-miterlimit:4;stroke-dasharray:none;stroke-dashoffset:0;stroke-opacity:1" />
      <path
         d="M 367.1752,164.92628 L 367.1752,170.26808 L 370.33926,170.26808 C 371.40045,170.26808 372.18496,170.04998 372.69278,169.61378 C 373.20709,169.17108 373.46425,168.49725 373.46426,167.5923 C 373.46425,166.68085 373.20709,166.01028 372.69278,165.58058 C 372.18496,165.14439 371.40045,164.92629 370.33926,164.92628 L 367.1752,164.92628 M 367.1752,158.93019 L 367.1752,163.32472 L 370.09512,163.32472 C 371.05866,163.32473 371.7748,163.14569 372.24356,162.78761 C 372.71881,162.42304 372.95644,161.86965 372.95645,161.12746 C 372.95644,160.39179 372.71881,159.84166 372.24356,159.47707 C 371.7748,159.1125 371.05866,158.9302 370.09512,158.93019 L 367.1752,158.93019 M 365.20255,157.3091 L 370.24161,157.3091 C 371.74551,157.30911 372.90436,157.62161 373.71817,158.2466 C 374.53196,158.87161 374.93886,159.76028 374.93887,160.91261 C 374.93886,161.80455 374.73053,162.51418 374.31387,163.04152 C 373.8972,163.56887 373.28522,163.89765 372.47794,164.02785 C 373.44798,164.23619 374.19993,164.67239 374.7338,165.33644 C 375.27415,165.994 375.54433,166.81757 375.54434,167.80714 C 375.54433,169.10923 375.10162,170.11509 374.21622,170.82472 C 373.33079,171.53436 372.07103,171.88918 370.43692,171.88918 L 365.20255,171.88918 L 365.20255,157.3091 M 383.80606,166.39113 C 382.35423,166.39113 381.34837,166.55715 380.78848,166.88918 C 380.22858,167.22121 379.94864,167.78762 379.94864,168.58839 C 379.94864,169.22642 380.15697,169.73423 380.57364,170.11183 C 380.99681,170.48293 381.56973,170.66847 382.29239,170.66847 C 383.28848,170.66847 384.086,170.31691 384.68497,169.61378 C 385.29043,168.90415 385.59316,167.9634 385.59317,166.79152 L 385.59317,166.39113 L 383.80606,166.39113 M 387.39005,165.64894 L 387.39005,171.88918 L 385.59317,171.88918 L 385.59317,170.22902 C 385.18301,170.89308 384.67194,171.38462 384.05997,171.70363 C 383.44798,172.01613 382.69928,172.17238 381.81387,172.17238 C 380.69408,172.17238 379.80215,171.85988 379.13809,171.23488 C 378.48054,170.60337 378.15176,169.76027 378.15176,168.70558 C 378.15176,167.47512 378.56192,166.54738 379.38223,165.92238 C 380.20905,165.29739 381.43952,164.98489 383.07364,164.98488 L 385.59317,164.98488 L 385.59317,164.8091 C 385.59316,163.98228 385.31972,163.34426 384.77286,162.89503 C 384.23249,162.43932 383.47077,162.21145 382.4877,162.21144 C 381.8627,162.21145 381.25397,162.28632 380.66153,162.43605 C 380.06908,162.5858 379.49942,162.81041 378.95255,163.10988 L 378.95255,161.44972 C 379.61009,161.19583 380.24811,161.00702 380.86661,160.88332 C 381.48509,160.75312 382.08731,160.68801 382.67325,160.688 C 384.25527,160.68801 385.43691,161.09817 386.21817,161.91847 C 386.99941,162.73879 387.39003,163.98228 387.39005,165.64894"
         id="text11737"
         style="font-size:20px;font-style:normal;font-variant:normal;font-weight:normal;font-stretch:normal;fill:#ffffff;fill-opacity:1;stroke:none;stroke-width:1px;stroke-linecap:butt;stroke-linejoin:miter;stroke-opacity:1;font-family:Sans;-inkscape-font-specification:Newspaper" />
    </g>
    <g
       transform="translate(0,277.77778)"
       id="g11746">
      <path
         d="M 392.59258,161.03703 A 18.518518,18.518518 0 1 1 355.55555,161.03703 A 18.518518,18.518518 0 1 1 392.59258,161.03703 z"
         transform="translate(2.2222222,3.7037037)"
         id="path11748"
         style="opacity:1;fill:#0d11ff;fill-opacity:1;fill-rule:nonzero;stroke:none;stroke-width:1;stroke-linecap:round;stroke-linejoin:miter;stroke-miterlimit:4;stroke-dasharray:none;stroke-dashoffset:0;stroke-opacity:1" />
      <path
         d="M 367.1752,164.92628 L 367.1752,170.26808 L 370.33926,170.26808 C 371.40045,170.26808 372.18496,170.04998 372.69278,169.61378 C 373.20709,169.17108 373.46425,168.49725 373.46426,167.5923 C 373.46425,166.68085 373.20709,166.01028 372.69278,165.58058 C 372.18496,165.14439 371.40045,164.92629 370.33926,164.92628 L 367.1752,164.92628 M 367.1752,158.93019 L 367.1752,163.32472 L 370.09512,163.32472 C 371.05866,163.32473 371.7748,163.14569 372.24356,162.78761 C 372.71881,162.42304 372.95644,161.86965 372.95645,161.12746 C 372.95644,160.39179 372.71881,159.84166 372.24356,159.47707 C 371.7748,159.1125 371.05866,158.9302 370.09512,158.93019 L 367.1752,158.93019 M 365.20255,157.3091 L 370.24161,157.3091 C 371.74551,157.30911 372.90436,157.62161 373.71817,158.2466 C 374.53196,158.87161 374.93886,159.76028 374.93887,160.91261 C 374.93886,161.80455 374.73053,162.51418 374.31387,163.04152 C 373.8972,163.56887 373.28522,163.89765 372.47794,164.02785 C 373.44798,164.23619 374.19993,164.67239 374.7338,165.33644 C 375.27415,165.994 375.54433,166.81757 375.54434,167.80714 C 375.54433,169.10923 375.10162,170.11509 374.21622,170.82472 C 373.33079,171.53436 372.07103,171.88918 370.43692,171.88918 L 365.20255,171.88918 L 365.20255,157.3091 M 383.80606,166.39113 C 382.35423,166.39113 381.34837,166.55715 380.78848,166.88918 C 380.22858,167.22121 379.94864,167.78762 379.94864,168.58839 C 379.94864,169.22642 380.15697,169.73423 380.57364,170.11183 C 380.99681,170.48293 381.56973,170.66847 382.29239,170.66847 C 383.28848,170.66847 384.086,170.31691 384.68497,169.61378 C 385.29043,168.90415 385.59316,167.9634 385.59317,166.79152 L 385.59317,166.39113 L 383.80606,166.39113 M 387.39005,165.64894 L 387.39005,171.88918 L 385.59317,171.88918 L 385.59317,170.22902 C 385.18301,170.89308 384.67194,171.38462 384.05997,171.70363 C 383.44798,172.01613 382.69928,172.17238 381.81387,172.17238 C 380.69408,172.17238 379.80215,171.85988 379.13809,171.23488 C 378.48054,170.60337 378.15176,169.76027 378.15176,168.70558 C 378.15176,167.47512 378.56192,166.54738 379.38223,165.92238 C 380.20905,165.29739 381.43952,164.98489 383.07364,164.98488 L 385.59317,164.98488 L 385.59317,164.8091 C 385.59316,163.98228 385.31972,163.34426 384.77286,162.89503 C 384.23249,162.43932 383.47077,162.21145 382.4877,162.21144 C 381.8627,162.21145 381.25397,162.28632 380.66153,162.43605 C 380.06908,162.5858 379.49942,162.81041 378.95255,163.10988 L 378.95255,161.44972 C 379.61009,161.19583 380.24811,161.00702 380.86661,160.88332 C 381.48509,160.75312 382.08731,160.68801 382.67325,160.688 C 384.25527,160.68801 385.43691,161.09817 386.21817,161.91847 C 386.99941,162.73879 387.39003,163.98228 387.39005,165.64894"
         id="path11750"
         style="font-size:20px;font-style:normal;font-variant:normal;font-weight:normal;font-stretch:normal;fill:#ffffff;fill-opacity:1;stroke:none;stroke-width:1px;stroke-linecap:butt;stroke-linejoin:miter;stroke-opacity:1;font-family:Sans;-inkscape-font-specification:Newspaper" />
    </g>
    <g
       transform="translate(0.5582513,1.8518519)"
       id="g11761">
      <path
         d="M 390.74074,299.92593 A 13.333333,13.333333 0 1 1 364.07408,299.92593 A 13.333333,13.333333 0 1 1 390.74074,299.92593 z"
         transform="translate(-1.6693726,4.1914062)"
         id="path11754"
         style="opacity:1;fill:#eb00da;fill-opacity:1;fill-rule:nonzero;stroke:none;stroke-width:1;stroke-linecap:round;stroke-linejoin:miter;stroke-miterlimit:4;stroke-dasharray:none;stroke-dashoffset:0;stroke-opacity:1" />
      <path
         d="M 369.59058,296.8273 L 371.70972,296.8273 L 375.75269,302.82339 L 379.76636,296.8273 L 381.8855,296.8273 L 376.72925,304.46402 L 376.72925,311.40738 L 374.74683,311.40738 L 374.74683,304.46402 L 369.59058,296.8273"
         id="text11756"
         style="font-size:20px;font-style:normal;font-variant:normal;font-weight:normal;font-stretch:normal;fill:#ffffff;fill-opacity:1;stroke:none;stroke-width:1px;stroke-linecap:butt;stroke-linejoin:miter;stroke-opacity:1;font-family:Sans;-inkscape-font-specification:Newspaper" />
    </g>
    <path
       d="M 86.436416,94.246667 L 86.436416,96.326747 C 85.772341,95.708267 85.062707,95.246027 84.30751,94.940027 C 83.558802,94.634047 82.761277,94.481057 81.914932,94.481047 C 80.248258,94.481057 78.972218,94.992127 78.086807,96.014247 C 77.201386,97.029887 76.758678,98.501237 76.758682,100.42831 C 76.758678,102.34889 77.201386,103.82024 78.086807,104.84237 C 78.972218,105.858 80.248258,106.36581 81.914932,106.36581 C 82.761277,106.36581 83.558802,106.21282 84.30751,105.90683 C 85.062707,105.60084 85.772341,105.1386 86.436416,104.52011 L 86.436416,106.58066 C 85.7463,107.04941 85.013879,107.40097 84.23915,107.63534 C 83.470911,107.86972 82.65711,107.98691 81.797744,107.98691 C 79.590707,107.98691 77.852427,107.31308 76.5829,105.96542 C 75.313367,104.61126 74.678602,102.76556 74.678604,100.42831 C 74.678602,98.084567 75.313367,96.238867 76.5829,94.891197 C 77.852427,93.537047 79.590707,92.859967 81.797744,92.859947 C 82.670131,92.859967 83.490443,92.977157 84.258682,93.211517 C 85.03341,93.439387 85.75932,93.784447 86.436416,94.246667 M 93.662979,98.025967 C 92.699432,98.025977 91.937714,98.403577 91.377822,99.158777 C 90.817923,99.907487 90.537976,100.93613 90.537979,102.24472 C 90.537976,103.55332 90.814668,104.58522 91.368057,105.34042 C 91.927948,106.08912 92.692921,106.46347 93.662979,106.46347 C 94.620003,106.46347 95.378465,106.08587 95.938369,105.33066 C 96.498256,104.57545 96.778204,103.54681 96.778213,102.24472 C 96.778204,100.94915 96.498256,99.923757 95.938369,99.168547 C 95.378465,98.406837 94.620003,98.025977 93.662979,98.025967 M 93.662979,96.502527 C 95.225471,96.502537 96.452683,97.010347 97.344619,98.025967 C 98.23654,99.041597 98.6825,100.44785 98.68251,102.24472 C 98.6825,104.03509 98.23654,105.44134 97.344619,106.46347 C 96.452683,107.47909 95.225471,107.98691 93.662979,107.98691 C 92.093964,107.98691 90.863496,107.47909 89.971572,106.46347 C 89.086154,105.44134 88.643446,104.03509 88.643447,102.24472 C 88.643446,100.44785 89.086154,99.041597 89.971572,98.025967 C 90.863496,97.010347 92.093964,96.502537 93.662979,96.502527 M 103.38954,106.06308 L 103.38954,111.86386 L 101.5829,111.86386 L 101.5829,96.766197 L 103.38954,96.766197 L 103.38954,98.426357 C 103.76714,97.775327 104.2424,97.293557 104.81532,96.981047 C 105.39474,96.662047 106.08485,96.502537 106.88563,96.502527 C 108.21375,96.502537 109.29122,97.029887 110.11806,98.084557 C 110.95138,99.139257 111.36804,100.52598 111.36806,102.24472 C 111.36804,103.96347 110.95138,105.35019 110.11806,106.40487 C 109.29122,107.45956 108.21375,107.98691 106.88563,107.98691 C 106.08485,107.98691 105.39474,107.83066 104.81532,107.51816 C 104.2424,107.19915 103.76714,106.71412 103.38954,106.06308 M 109.50282,102.24472 C 109.50281,100.92311 109.22937,99.887957 108.68251,99.139247 C 108.14214,98.384047 107.39669,98.006447 106.44618,98.006437 C 105.49565,98.006447 104.74696,98.384047 104.20009,99.139247 C 103.65972,99.887957 103.38954,100.92311 103.38954,102.24472 C 103.38954,103.56634 103.65972,104.60475 104.20009,105.35995 C 104.74696,106.10865 105.49565,106.483 106.44618,106.483 C 107.39669,106.483 108.14214,106.10865 108.68251,105.35995 C 109.22937,104.60475 109.50281,103.56634 109.50282,102.24472 M 116.08485,106.06308 L 116.08485,111.86386 L 114.27821,111.86386 L 114.27821,96.766197 L 116.08485,96.766197 L 116.08485,98.426357 C 116.46245,97.775327 116.93771,97.293557 117.51063,96.981047 C 118.09006,96.662047 118.78016,96.502537 119.58095,96.502527 C 120.90906,96.502537 121.98654,97.029887 122.81337,98.084557 C 123.64669,99.139257 124.06336,100.52598 124.06337,102.24472 C 124.06336,103.96347 123.64669,105.35019 122.81337,106.40487 C 121.98654,107.45956 120.90906,107.98691 119.58095,107.98691 C 118.78016,107.98691 118.09006,107.83066 117.51063,107.51816 C 116.93771,107.19915 116.46245,106.71412 116.08485,106.06308 M 122.19813,102.24472 C 122.19812,100.92311 121.92469,99.887957 121.37782,99.139247 C 120.83745,98.384047 120.09201,98.006447 119.14149,98.006437 C 118.19097,98.006447 117.44227,98.384047 116.8954,99.139247 C 116.35503,99.887957 116.08485,100.92311 116.08485,102.24472 C 116.08485,103.56634 116.35503,104.60475 116.8954,105.35995 C 117.44227,106.10865 118.19097,106.483 119.14149,106.483 C 120.09201,106.483 120.83745,106.10865 121.37782,105.35995 C 121.92469,104.60475 122.19812,103.56634 122.19813,102.24472 M 136.39736,101.78573 L 136.39736,102.66464 L 128.13563,102.66464 C 128.21376,103.90162 128.58485,104.84563 129.24892,105.49667 C 129.91948,106.1412 130.85047,106.46347 132.04188,106.46347 C 132.73198,106.46347 133.3993,106.37883 134.04384,106.20956 C 134.69487,106.04029 135.3394,105.78639 135.97743,105.44784 L 135.97743,107.14706 C 135.33289,107.4205 134.67208,107.62883 133.99501,107.77206 C 133.31792,107.91529 132.63107,107.98691 131.93446,107.98691 C 130.18967,107.98691 128.8062,107.47909 127.78407,106.46347 C 126.76845,105.44785 126.26063,104.07415 126.26063,102.34237 C 126.26063,100.55202 126.7424,99.132747 127.70595,98.084557 C 128.676,97.029887 129.98133,96.502537 131.62196,96.502527 C 133.09331,96.502537 134.25542,96.977797 135.10829,97.928307 C 135.96766,98.872327 136.39734,100.15814 136.39736,101.78573 M 134.60048,101.25839 C 134.58745,100.27533 134.31076,99.490817 133.7704,98.904867 C 133.23654,98.318947 132.5269,98.025977 131.64149,98.025967 C 130.63888,98.025977 129.83485,98.309177 129.22938,98.875577 C 128.63042,99.441987 128.28537,100.23952 128.19423,101.26816 L 134.60048,101.25839 M 145.68446,98.445887 C 145.48263,98.328707 145.26128,98.244077 145.0204,98.191977 C 144.78602,98.133397 144.5256,98.104097 144.23915,98.104087 C 143.22352,98.104097 142.44227,98.436127 141.8954,99.100187 C 141.35503,99.757747 141.08485,100.70501 141.08486,101.94198 L 141.08486,107.7037 L 139.27821,107.7037 L 139.27821,96.766197 L 141.08486,96.766197 L 141.08486,98.465417 C 141.46246,97.801367 141.95399,97.309827 142.55946,96.990807 C 143.16493,96.665297 143.9006,96.502537 144.7665,96.502527 C 144.89019,96.502537 145.02691,96.512307 145.17665,96.531827 C 145.32638,96.544857 145.4924,96.567647 145.6747,96.600187 L 145.68446,98.445887 M 160.94814,100.86777 C 161.3713,101.011 161.78146,101.31699 162.17861,101.78573 C 162.58224,102.25449 162.98589,102.89902 163.38954,103.71933 L 165.3915,107.7037 L 163.27236,107.7037 L 161.40712,103.96347 C 160.92534,102.98691 160.45659,102.33913 160.00087,102.02011 C 159.55164,101.7011 158.93641,101.5416 158.15517,101.54159 L 156.00673,101.54159 L 156.00673,107.7037 L 154.03407,107.7037 L 154.03407,93.123617 L 158.4872,93.123617 C 160.15386,93.123637 161.39735,93.471947 162.21767,94.168547 C 163.03797,94.865167 163.44813,95.916607 163.44814,97.322837 C 163.44813,98.240817 163.23328,99.002537 162.80361,99.607997 C 162.38042,100.21348 161.76193,100.6334 160.94814,100.86777 M 156.00673,94.744717 L 156.00673,99.920497 L 158.4872,99.920497 C 159.43771,99.920507 160.15386,99.702407 160.63564,99.266197 C 161.12391,98.823497 161.36805,98.175717 161.36806,97.322837 C 161.36805,96.469987 161.12391,95.828707 160.63564,95.399017 C 160.15386,94.962827 159.43771,94.744727 158.4872,94.744717 L 156.00673,94.744717 M 167.8622,96.766197 L 169.65907,96.766197 L 169.65907,107.7037 L 167.8622,107.7037 L 167.8622,96.766197 M 167.8622,92.508387 L 169.65907,92.508387 L 169.65907,94.783777 L 167.8622,94.783777 L 167.8622,92.508387 M 181.26064,102.24472 C 181.26063,100.92311 180.98719,99.887957 180.44032,99.139247 C 179.89995,98.384047 179.15451,98.006447 178.204,98.006437 C 177.25347,98.006447 176.50477,98.384047 175.9579,99.139247 C 175.41753,99.887957 175.14735,100.92311 175.14736,102.24472 C 175.14735,103.56634 175.41753,104.60475 175.9579,105.35995 C 176.50477,106.10865 177.25347,106.483 178.204,106.483 C 179.15451,106.483 179.89995,106.10865 180.44032,105.35995 C 180.98719,104.60475 181.26063,103.56634 181.26064,102.24472 M 175.14736,98.426357 C 175.52496,97.775327 176.00022,97.293557 176.57314,96.981047 C 177.15256,96.662047 177.84266,96.502537 178.64345,96.502527 C 179.97157,96.502537 181.04904,97.029887 181.87587,98.084557 C 182.70919,99.139257 183.12586,100.52598 183.12587,102.24472 C 183.12586,103.96347 182.70919,105.35019 181.87587,106.40487 C 181.04904,107.45956 179.97157,107.98691 178.64345,107.98691 C 177.84266,107.98691 177.15256,107.83066 176.57314,107.51816 C 176.00022,107.19915 175.52496,106.71412 175.14736,106.06308 L 175.14736,107.7037 L 173.34071,107.7037 L 173.34071,92.508387 L 175.14736,92.508387 L 175.14736,98.426357 M 193.95595,102.24472 C 193.95594,100.92311 193.6825,99.887957 193.13564,99.139247 C 192.59526,98.384047 191.84982,98.006447 190.89931,98.006437 C 189.94878,98.006447 189.20008,98.384047 188.65321,99.139247 C 188.11285,99.887957 187.84266,100.92311 187.84267,102.24472 C 187.84266,103.56634 188.11285,104.60475 188.65321,105.35995 C 189.20008,106.10865 189.94878,106.483 190.89931,106.483 C 191.84982,106.483 192.59526,106.10865 193.13564,105.35995 C 193.6825,104.60475 193.95594,103.56634 193.95595,102.24472 M 187.84267,98.426357 C 188.22027,97.775327 188.69553,97.293557 189.26845,96.981047 C 189.84787,96.662047 190.53797,96.502537 191.33876,96.502527 C 192.66688,96.502537 193.74435,97.029887 194.57118,98.084557 C 195.40451,99.139257 195.82117,100.52598 195.82118,102.24472 C 195.82117,103.96347 195.40451,105.35019 194.57118,106.40487 C 193.74435,107.45956 192.66688,107.98691 191.33876,107.98691 C 190.53797,107.98691 189.84787,107.83066 189.26845,107.51816 C 188.69553,107.19915 188.22027,106.71412 187.84267,106.06308 L 187.84267,107.7037 L 186.03603,107.7037 L 186.03603,92.508387 L 187.84267,92.508387 L 187.84267,98.426357 M 203.03798,98.025967 C 202.07443,98.025977 201.31272,98.403577 200.75282,99.158777 C 200.19293,99.907487 199.91298,100.93613 199.91298,102.24472 C 199.91298,103.55332 200.18967,104.58522 200.74306,105.34042 C 201.30295,106.08912 202.06792,106.46347 203.03798,106.46347 C 203.995,106.46347 204.75347,106.08587 205.31337,105.33066 C 205.87326,104.57545 206.15321,103.54681 206.15321,102.24472 C 206.15321,100.94915 205.87326,99.923757 205.31337,99.168547 C 204.75347,98.406837 203.995,98.025977 203.03798,98.025967 M 203.03798,96.502527 C 204.60047,96.502537 205.82769,97.010347 206.71962,98.025967 C 207.61154,99.041597 208.0575,100.44785 208.05751,102.24472 C 208.0575,104.03509 207.61154,105.44134 206.71962,106.46347 C 205.82769,107.47909 204.60047,107.98691 203.03798,107.98691 C 201.46897,107.98691 200.2385,107.47909 199.34657,106.46347 C 198.46116,105.44134 198.01845,104.03509 198.01845,102.24472 C 198.01845,100.44785 198.46116,99.041597 199.34657,98.025967 C 200.2385,97.010347 201.46897,96.502537 203.03798,96.502527 M 220.11806,101.10214 L 220.11806,107.7037 L 218.32118,107.7037 L 218.32118,101.16073 C 218.32117,100.12559 218.11935,99.350847 217.71571,98.836517 C 217.31206,98.322197 216.70659,98.065037 215.89931,98.065027 C 214.92925,98.065037 214.16428,98.374287 213.60439,98.992767 C 213.04449,99.611257 212.76454,100.45436 212.76454,101.52206 L 212.76454,107.7037 L 210.9579,107.7037 L 210.9579,96.766197 L 212.76454,96.766197 L 212.76454,98.465417 C 213.19423,97.807877 213.69878,97.316337 214.27821,96.990807 C 214.86415,96.665297 215.53797,96.502537 216.2997,96.502527 C 217.5562,96.502537 218.50672,96.893167 219.15126,97.674407 C 219.79578,98.449157 220.11805,99.591727 220.11806,101.10214 M 230.69423,97.088467 L 230.69423,98.787687 C 230.18641,98.527277 229.65907,98.331967 229.1122,98.201747 C 228.56532,98.071547 227.99891,98.006447 227.41298,98.006437 C 226.52105,98.006447 225.85048,98.143167 225.40126,98.416587 C 224.95855,98.690037 224.7372,99.100197 224.7372,99.647057 C 224.7372,100.06374 224.8967,100.39251 225.21571,100.63339 C 225.53472,100.86777 226.176,101.09238 227.13954,101.30722 L 227.75478,101.44394 C 229.03081,101.71738 229.93576,102.10475 230.46962,102.60605 C 231.00998,103.10084 231.28016,103.7942 231.28017,104.68612 C 231.28016,105.70175 230.87651,106.50579 230.06923,107.09823 C 229.26844,107.69068 228.16493,107.98691 226.75868,107.98691 C 226.17274,107.98691 225.56076,107.92831 224.92275,107.81112 C 224.29123,107.70045 223.62392,107.53118 222.92079,107.30331 L 222.92079,105.44784 C 223.58485,105.7929 224.23915,106.05331 224.88368,106.22909 C 225.52821,106.39837 226.16623,106.483 226.79775,106.483 C 227.64409,106.483 228.29514,106.33977 228.75087,106.05331 C 229.20659,105.76035 229.43446,105.35019 229.43446,104.82284 C 229.43446,104.33457 229.26844,103.96022 228.93642,103.6998 C 228.61089,103.43938 227.89149,103.18873 226.77821,102.94784 L 226.15321,102.80136 C 225.03993,102.56699 224.23589,102.20892 223.74111,101.72714 C 223.24631,101.23887 222.99892,100.57155 222.99892,99.725187 C 222.99892,98.696547 223.3635,97.902277 224.09267,97.342367 C 224.82183,96.782487 225.85699,96.502537 227.19814,96.502527 C 227.86219,96.502537 228.48719,96.551367 229.07314,96.649017 C 229.65907,96.746677 230.19943,96.893167 230.69423,97.088467"
       id="text11765"
       style="font-size:20px;font-style:normal;font-variant:normal;font-weight:normal;font-stretch:normal;fill:#000000;fill-opacity:1;stroke:none;stroke-width:1px;stroke-linecap:butt;stroke-linejoin:miter;stroke-opacity:1;font-family:Sans;-inkscape-font-specification:Newspaper" />
    <g
       id="g11787">
      <path
         d="M 237.96296,102.14815 C 256.2963,102.14815 249.98076,46.193912 270.26816,46.193912"
         id="path11783"
         style="fill:none;fill-rule:evenodd;stroke:#000000;stroke-width:1.5;stroke-linecap:butt;stroke-linejoin:miter;stroke-miterlimit:4;stroke-dasharray:none;stroke-opacity:1" />
      <path
         d="M 237.96296,102.20908 C 256.2963,102.20908 249.98076,158.16332 270.26816,158.16332"
         id="path11785"
         style="fill:none;fill-rule:evenodd;stroke:#000000;stroke-width:1.5;stroke-linecap:butt;stroke-linejoin:miter;stroke-miterlimit:4;stroke-dasharray:none;stroke-opacity:1" />
    </g>
    <g
       id="g11803">
      <path
         d="M 56.288265,249.73158 L 56.288265,251.81166 C 55.62419,251.19318 54.914555,250.73095 54.159358,250.42494 C 53.41065,250.11897 52.613125,249.96597 51.76678,249.96596 C 50.100107,249.96597 48.824066,250.47704 47.938655,251.49916 C 47.053235,252.5148 46.610527,253.98615 46.61053,255.91322 C 46.610527,257.8338 47.053235,259.30516 47.938655,260.32729 C 48.824066,261.34291 50.100107,261.85073 51.76678,261.85072 C 52.613125,261.85073 53.41065,261.69773 54.159358,261.39174 C 54.914555,261.08575 55.62419,260.62351 56.288265,260.00502 L 56.288265,262.06557 C 55.598148,262.53432 54.865727,262.88588 54.090999,263.12026 C 53.32276,263.35463 52.508959,263.47182 51.649593,263.47182 C 49.442555,263.47182 47.704276,262.79799 46.434749,261.45033 C 45.165216,260.09617 44.530451,258.25047 44.530452,255.91322 C 44.530451,253.56948 45.165216,251.72378 46.434749,250.37611 C 47.704276,249.02196 49.442555,248.34488 51.649593,248.34486 C 52.521979,248.34488 53.342291,248.46207 54.11053,248.69643 C 54.885258,248.92431 55.611169,249.26936 56.288265,249.73158 M 63.514827,253.51088 C 62.55128,253.51089 61.789562,253.88849 61.229671,254.64369 C 60.669772,255.3924 60.389824,256.42104 60.389827,257.72963 C 60.389824,259.03823 60.666517,260.07013 61.219905,260.82533 C 61.779797,261.57403 62.54477,261.94838 63.514827,261.94838 C 64.471851,261.94838 65.230314,261.57078 65.790218,260.81557 C 66.350105,260.06036 66.630052,259.03172 66.630061,257.72963 C 66.630052,256.43406 66.350105,255.40867 65.790218,254.65346 C 65.230314,253.89175 64.471851,253.51089 63.514827,253.51088 M 63.514827,251.98744 C 65.077319,251.98745 66.304532,252.49527 67.196468,253.51088 C 68.088384,254.52651 68.534347,255.93276 68.534358,257.72963 C 68.534347,259.52 68.088384,260.92625 67.196468,261.94838 C 66.304532,262.96401 65.077319,263.47182 63.514827,263.47182 C 61.945812,263.47182 60.715345,262.96401 59.823421,261.94838 C 58.938003,260.92625 58.495295,259.52 58.495296,257.72963 C 58.495295,255.93276 58.938003,254.52651 59.823421,253.51088 C 60.715345,252.49527 61.945812,251.98745 63.514827,251.98744 M 73.24139,261.54799 L 73.24139,267.34877 L 71.434749,267.34877 L 71.434749,252.25111 L 73.24139,252.25111 L 73.24139,253.91127 C 73.61899,253.26024 74.09425,252.77847 74.667171,252.46596 C 75.246592,252.14696 75.936696,251.98745 76.737483,251.98744 C 78.0656,251.98745 79.143073,252.5148 79.969905,253.56947 C 80.803227,254.62417 81.219894,256.01089 81.219905,257.72963 C 81.219894,259.44838 80.803227,260.8351 79.969905,261.88979 C 79.143073,262.94447 78.0656,263.47182 76.737483,263.47182 C 75.936696,263.47182 75.246592,263.31557 74.667171,263.00307 C 74.09425,262.68406 73.61899,262.19903 73.24139,261.54799 M 79.354671,257.72963 C 79.354661,256.40802 79.081224,255.37287 78.534358,254.62416 C 77.993985,253.86896 77.248543,253.49136 76.29803,253.49135 C 75.347504,253.49136 74.598806,253.86896 74.051936,254.62416 C 73.511568,255.37287 73.241386,256.40802 73.24139,257.72963 C 73.241386,259.05125 73.511568,260.08966 74.051936,260.84486 C 74.598806,261.59356 75.347504,261.96791 76.29803,261.96791 C 77.248543,261.96791 77.993985,261.59356 78.534358,260.84486 C 79.081224,260.08966 79.354661,259.05125 79.354671,257.72963 M 85.936702,261.54799 L 85.936702,267.34877 L 84.130061,267.34877 L 84.130061,252.25111 L 85.936702,252.25111 L 85.936702,253.91127 C 86.314302,253.26024 86.789562,252.77847 87.362483,252.46596 C 87.941905,252.14696 88.632008,251.98745 89.432796,251.98744 C 90.760912,251.98745 91.838385,252.5148 92.665218,253.56947 C 93.49854,254.62417 93.915208,256.01089 93.915218,257.72963 C 93.915208,259.44838 93.49854,260.8351 92.665218,261.88979 C 91.838385,262.94447 90.760912,263.47182 89.432796,263.47182 C 88.632008,263.47182 87.941905,263.31557 87.362483,263.00307 C 86.789562,262.68406 86.314302,262.19903 85.936702,261.54799 M 92.049983,257.72963 C 92.049974,256.40802 91.776536,255.37287 91.229671,254.62416 C 90.689298,253.86896 89.943856,253.49136 88.993343,253.49135 C 88.042816,253.49136 87.294119,253.86896 86.747249,254.62416 C 86.206881,255.37287 85.936698,256.40802 85.936702,257.72963 C 85.936698,259.05125 86.206881,260.08966 86.747249,260.84486 C 87.294119,261.59356 88.042816,261.96791 88.993343,261.96791 C 89.943856,261.96791 90.689298,261.59356 91.229671,260.84486 C 91.776536,260.08966 92.049974,259.05125 92.049983,257.72963 M 106.2492,257.27065 L 106.2492,258.14955 L 97.98749,258.14955 C 98.06561,259.38654 98.4367,260.33054 99.10077,260.98158 C 99.77133,261.62612 100.70232,261.94838 101.89374,261.94838 C 102.58383,261.94838 103.25115,261.86375 103.89569,261.69447 C 104.54672,261.52521 105.19125,261.2713 105.82928,260.93276 L 105.82928,262.63197 C 105.18474,262.90541 104.52393,263.11375 103.84686,263.25697 C 103.16977,263.4002 102.48292,263.47182 101.78631,263.47182 C 100.04152,263.47182 98.65805,262.96401 97.63592,261.94838 C 96.6203,260.93276 96.11248,259.55906 96.11249,257.82729 C 96.11248,256.03693 96.59425,254.61766 97.5578,253.56947 C 98.52785,252.5148 99.83318,251.98745 101.47381,251.98744 C 102.94516,251.98745 104.10727,252.46271 104.96014,253.41322 C 105.81951,254.35724 106.24919,255.64305 106.2492,257.27065 M 104.45233,256.7433 C 104.4393,255.76024 104.16261,254.97573 103.62225,254.38979 C 103.08839,253.80386 102.37875,253.51089 101.49334,253.51088 C 100.49074,253.51089 99.6867,253.79409 99.08124,254.36049 C 98.48227,254.9269 98.13722,255.72443 98.04608,256.75307 L 104.45233,256.7433 M 115.53631,253.9308 C 115.33448,253.81362 115.11313,253.72899 114.87225,253.6769 C 114.63787,253.61831 114.37745,253.58902 114.091,253.58901 C 113.07537,253.58902 112.29412,253.92105 111.74725,254.5851 C 111.20688,255.24266 110.9367,256.18992 110.9367,257.4269 L 110.9367,263.18861 L 109.13006,263.18861 L 109.13006,252.25111 L 110.9367,252.25111 L 110.9367,253.95033 C 111.3143,253.28628 111.80584,252.79475 112.41131,252.47572 C 113.01678,252.15021 113.75245,251.98745 114.61834,251.98744 C 114.74204,251.98745 114.87875,251.99722 115.0285,252.01674 C 115.17823,252.02977 115.34425,252.05256 115.52655,252.0851 L 115.53631,253.9308 M 125.85858,250.22963 L 125.85858,255.70815 L 128.33905,255.70815 C 129.25701,255.70815 129.96664,255.47052 130.46795,254.99526 C 130.96925,254.52 131.2199,253.84292 131.21991,252.96401 C 131.2199,252.09162 130.96925,251.41779 130.46795,250.94252 C 129.96664,250.46727 129.25701,250.22964 128.33905,250.22963 L 125.85858,250.22963 M 123.88592,248.60854 L 128.33905,248.60854 C 129.97315,248.60855 131.20688,248.97964 132.04022,249.72182 C 132.88005,250.45751 133.29997,251.53824 133.29999,252.96401 C 133.29997,254.40282 132.88005,255.49005 132.04022,256.22572 C 131.20688,256.96141 129.97315,257.32925 128.33905,257.32924 L 125.85858,257.32924 L 125.85858,263.18861 L 123.88592,263.18861 L 123.88592,248.60854 M 135.87811,247.9933 L 137.67499,247.9933 L 137.67499,263.18861 L 135.87811,263.18861 L 135.87811,247.9933 M 146.39569,257.69057 C 144.94386,257.69057 143.938,257.85659 143.37811,258.18861 C 142.81821,258.52065 142.53826,259.08706 142.53827,259.88783 C 142.53826,260.52586 142.7466,261.03367 143.16327,261.41127 C 143.58644,261.78237 144.15936,261.96791 144.88202,261.96791 C 145.8781,261.96791 146.67563,261.61635 147.27459,260.91322 C 147.88006,260.20359 148.18279,259.26284 148.1828,258.09096 L 148.1828,257.69057 L 146.39569,257.69057 M 149.97967,256.94838 L 149.97967,263.18861 L 148.1828,263.18861 L 148.1828,261.52846 C 147.77263,262.19252 147.26157,262.68406 146.64959,263.00307 C 146.03761,263.31557 145.28891,263.47182 144.4035,263.47182 C 143.28371,263.47182 142.39178,263.15932 141.72772,262.53432 C 141.07017,261.90281 140.74139,261.05971 140.74139,260.00502 C 140.74139,258.77456 141.15155,257.84682 141.97186,257.22182 C 142.79868,256.59682 144.02915,256.28432 145.66327,256.28432 L 148.1828,256.28432 L 148.1828,256.10854 C 148.18279,255.28172 147.90935,254.6437 147.36249,254.19447 C 146.82211,253.73875 146.0604,253.51089 145.07733,253.51088 C 144.45232,253.51089 143.8436,253.58576 143.25116,253.73549 C 142.65871,253.88524 142.08905,254.10985 141.54217,254.40932 L 141.54217,252.74916 C 142.19972,252.49527 142.83774,252.30646 143.45624,252.18276 C 144.07472,252.05256 144.67693,251.98745 145.26288,251.98744 C 146.8449,251.98745 148.02654,252.39761 148.8078,253.21791 C 149.58904,254.03823 149.97966,255.28172 149.97967,256.94838 M 162.78241,256.58705 L 162.78241,263.18861 L 160.98553,263.18861 L 160.98553,256.64565 C 160.98552,255.6105 160.7837,254.83576 160.38006,254.32143 C 159.97641,253.80711 159.37094,253.54995 158.56366,253.54994 C 157.5936,253.54995 156.82863,253.8592 156.26874,254.47768 C 155.70884,255.09618 155.42889,255.93927 155.42889,257.00697 L 155.42889,263.18861 L 153.62225,263.18861 L 153.62225,252.25111 L 155.42889,252.25111 L 155.42889,253.95033 C 155.85858,253.29279 156.36313,252.80126 156.94256,252.47572 C 157.5285,252.15021 158.20232,251.98745 158.96405,251.98744 C 160.22055,251.98745 161.17107,252.37808 161.81561,253.15932 C 162.46013,253.93407 162.7824,255.07664 162.78241,256.58705 M 175.74139,257.27065 L 175.74139,258.14955 L 167.47967,258.14955 C 167.55779,259.38654 167.92889,260.33054 168.59295,260.98158 C 169.26352,261.62612 170.19451,261.94838 171.38592,261.94838 C 172.07602,261.94838 172.74334,261.86375 173.38788,261.69447 C 174.03891,261.52521 174.68344,261.2713 175.32147,260.93276 L 175.32147,262.63197 C 174.67693,262.90541 174.01612,263.11375 173.33905,263.25697 C 172.66196,263.4002 171.97511,263.47182 171.2785,263.47182 C 169.5337,263.47182 168.15024,262.96401 167.12811,261.94838 C 166.11248,260.93276 165.60467,259.55906 165.60467,257.82729 C 165.60467,256.03693 166.08644,254.61766 167.04999,253.56947 C 168.02003,252.5148 169.32537,251.98745 170.966,251.98744 C 172.43735,251.98745 173.59946,252.46271 174.45233,253.41322 C 175.31169,254.35724 175.74138,255.64305 175.74139,257.27065 M 173.94452,256.7433 C 173.93149,255.76024 173.65479,254.97573 173.11444,254.38979 C 172.58058,253.80386 171.87094,253.51089 170.98553,253.51088 C 169.98292,253.51089 169.17889,253.79409 168.57342,254.36049 C 167.97446,254.9269 167.62941,255.72443 167.53827,256.75307 L 173.94452,256.7433 M 185.66327,252.57338 L 185.66327,254.2726 C 185.15545,254.01219 184.6281,253.81688 184.08124,253.68666 C 183.53435,253.55646 182.96795,253.49136 182.38202,253.49135 C 181.49008,253.49136 180.81951,253.62808 180.3703,253.90151 C 179.92759,254.17495 179.70623,254.58511 179.70624,255.13197 C 179.70623,255.54865 179.86574,255.87742 180.18475,256.1183 C 180.50376,256.35268 181.14503,256.57729 182.10858,256.79213 L 182.72381,256.92885 C 183.99985,257.20229 184.90479,257.58966 185.43866,258.09096 C 185.97901,258.58575 186.24919,259.27911 186.2492,260.17104 C 186.24919,261.18666 185.84555,261.9907 185.03827,262.58315 C 184.23748,263.17559 183.13396,263.47182 181.72772,263.47182 C 181.14178,263.47182 180.5298,263.41322 179.89178,263.29604 C 179.26027,263.18536 178.59295,263.01609 177.88983,262.78822 L 177.88983,260.93276 C 178.55389,261.27781 179.20819,261.53823 179.85272,261.71401 C 180.49725,261.88328 181.13527,261.96791 181.76678,261.96791 C 182.61313,261.96791 183.26417,261.82468 183.71991,261.53822 C 184.17563,261.24526 184.40349,260.8351 184.4035,260.30776 C 184.40349,259.81948 184.23748,259.44513 183.90545,259.18471 C 183.57993,258.9243 182.86053,258.67365 181.74725,258.43276 L 181.12225,258.28627 C 180.00897,258.0519 179.20493,257.69383 178.71014,257.21205 C 178.21535,256.72378 177.96795,256.05646 177.96795,255.2101 C 177.96795,254.18146 178.33254,253.38719 179.0617,252.82729 C 179.79087,252.2674 180.82602,251.98745 182.16717,251.98744 C 182.83123,251.98745 183.45623,252.03628 184.04217,252.13393 C 184.6281,252.23159 185.16847,252.37808 185.66327,252.57338"
         id="text11770"
         style="font-size:20px;font-style:normal;font-variant:normal;font-weight:normal;font-stretch:normal;fill:#000000;fill-opacity:1;stroke:none;stroke-width:1px;stroke-linecap:butt;stroke-linejoin:miter;stroke-opacity:1;font-family:Sans;-inkscape-font-specification:Newspaper" />
      <g
         transform="translate(-47,155.5)"
         id="g11791">
        <g
           id="g11799">
          <path
             d="M 237.96296,102.14815 C 256.2963,102.14815 237.48076,74.193912 257.76816,74.193912"
             id="path11793"
             style="fill:none;fill-rule:evenodd;stroke:#000000;stroke-width:1.5;stroke-linecap:butt;stroke-linejoin:miter;stroke-miterlimit:4;stroke-dasharray:none;stroke-opacity:1" />
          <path
             d="M 237.96296,102.19391 C 256.2963,102.19391 237.48076,130.14815 257.76816,130.14815"
             id="path11797"
             style="fill:none;fill-rule:evenodd;stroke:#000000;stroke-width:1.5;stroke-linecap:butt;stroke-linejoin:miter;stroke-miterlimit:4;stroke-dasharray:none;stroke-opacity:1" />
        </g>
      </g>
    </g>
    <g
       transform="translate(0,109)"
       id="g11810">
      <path
         d="M 56.288265,249.73158 L 56.288265,251.81166 C 55.62419,251.19318 54.914555,250.73095 54.159358,250.42494 C 53.41065,250.11897 52.613125,249.96597 51.76678,249.96596 C 50.100107,249.96597 48.824066,250.47704 47.938655,251.49916 C 47.053235,252.5148 46.610527,253.98615 46.61053,255.91322 C 46.610527,257.8338 47.053235,259.30516 47.938655,260.32729 C 48.824066,261.34291 50.100107,261.85073 51.76678,261.85072 C 52.613125,261.85073 53.41065,261.69773 54.159358,261.39174 C 54.914555,261.08575 55.62419,260.62351 56.288265,260.00502 L 56.288265,262.06557 C 55.598148,262.53432 54.865727,262.88588 54.090999,263.12026 C 53.32276,263.35463 52.508959,263.47182 51.649593,263.47182 C 49.442555,263.47182 47.704276,262.79799 46.434749,261.45033 C 45.165216,260.09617 44.530451,258.25047 44.530452,255.91322 C 44.530451,253.56948 45.165216,251.72378 46.434749,250.37611 C 47.704276,249.02196 49.442555,248.34488 51.649593,248.34486 C 52.521979,248.34488 53.342291,248.46207 54.11053,248.69643 C 54.885258,248.92431 55.611169,249.26936 56.288265,249.73158 M 63.514827,253.51088 C 62.55128,253.51089 61.789562,253.88849 61.229671,254.64369 C 60.669772,255.3924 60.389824,256.42104 60.389827,257.72963 C 60.389824,259.03823 60.666517,260.07013 61.219905,260.82533 C 61.779797,261.57403 62.54477,261.94838 63.514827,261.94838 C 64.471851,261.94838 65.230314,261.57078 65.790218,260.81557 C 66.350105,260.06036 66.630052,259.03172 66.630061,257.72963 C 66.630052,256.43406 66.350105,255.40867 65.790218,254.65346 C 65.230314,253.89175 64.471851,253.51089 63.514827,253.51088 M 63.514827,251.98744 C 65.077319,251.98745 66.304532,252.49527 67.196468,253.51088 C 68.088384,254.52651 68.534347,255.93276 68.534358,257.72963 C 68.534347,259.52 68.088384,260.92625 67.196468,261.94838 C 66.304532,262.96401 65.077319,263.47182 63.514827,263.47182 C 61.945812,263.47182 60.715345,262.96401 59.823421,261.94838 C 58.938003,260.92625 58.495295,259.52 58.495296,257.72963 C 58.495295,255.93276 58.938003,254.52651 59.823421,253.51088 C 60.715345,252.49527 61.945812,251.98745 63.514827,251.98744 M 73.24139,261.54799 L 73.24139,267.34877 L 71.434749,267.34877 L 71.434749,252.25111 L 73.24139,252.25111 L 73.24139,253.91127 C 73.61899,253.26024 74.09425,252.77847 74.667171,252.46596 C 75.246592,252.14696 75.936696,251.98745 76.737483,251.98744 C 78.0656,251.98745 79.143073,252.5148 79.969905,253.56947 C 80.803227,254.62417 81.219894,256.01089 81.219905,257.72963 C 81.219894,259.44838 80.803227,260.8351 79.969905,261.88979 C 79.143073,262.94447 78.0656,263.47182 76.737483,263.47182 C 75.936696,263.47182 75.246592,263.31557 74.667171,263.00307 C 74.09425,262.68406 73.61899,262.19903 73.24139,261.54799 M 79.354671,257.72963 C 79.354661,256.40802 79.081224,255.37287 78.534358,254.62416 C 77.993985,253.86896 77.248543,253.49136 76.29803,253.49135 C 75.347504,253.49136 74.598806,253.86896 74.051936,254.62416 C 73.511568,255.37287 73.241386,256.40802 73.24139,257.72963 C 73.241386,259.05125 73.511568,260.08966 74.051936,260.84486 C 74.598806,261.59356 75.347504,261.96791 76.29803,261.96791 C 77.248543,261.96791 77.993985,261.59356 78.534358,260.84486 C 79.081224,260.08966 79.354661,259.05125 79.354671,257.72963 M 85.936702,261.54799 L 85.936702,267.34877 L 84.130061,267.34877 L 84.130061,252.25111 L 85.936702,252.25111 L 85.936702,253.91127 C 86.314302,253.26024 86.789562,252.77847 87.362483,252.46596 C 87.941905,252.14696 88.632008,251.98745 89.432796,251.98744 C 90.760912,251.98745 91.838385,252.5148 92.665218,253.56947 C 93.49854,254.62417 93.915208,256.01089 93.915218,257.72963 C 93.915208,259.44838 93.49854,260.8351 92.665218,261.88979 C 91.838385,262.94447 90.760912,263.47182 89.432796,263.47182 C 88.632008,263.47182 87.941905,263.31557 87.362483,263.00307 C 86.789562,262.68406 86.314302,262.19903 85.936702,261.54799 M 92.049983,257.72963 C 92.049974,256.40802 91.776536,255.37287 91.229671,254.62416 C 90.689298,253.86896 89.943856,253.49136 88.993343,253.49135 C 88.042816,253.49136 87.294119,253.86896 86.747249,254.62416 C 86.206881,255.37287 85.936698,256.40802 85.936702,257.72963 C 85.936698,259.05125 86.206881,260.08966 86.747249,260.84486 C 87.294119,261.59356 88.042816,261.96791 88.993343,261.96791 C 89.943856,261.96791 90.689298,261.59356 91.229671,260.84486 C 91.776536,260.08966 92.049974,259.05125 92.049983,257.72963 M 106.2492,257.27065 L 106.2492,258.14955 L 97.98749,258.14955 C 98.06561,259.38654 98.4367,260.33054 99.10077,260.98158 C 99.77133,261.62612 100.70232,261.94838 101.89374,261.94838 C 102.58383,261.94838 103.25115,261.86375 103.89569,261.69447 C 104.54672,261.52521 105.19125,261.2713 105.82928,260.93276 L 105.82928,262.63197 C 105.18474,262.90541 104.52393,263.11375 103.84686,263.25697 C 103.16977,263.4002 102.48292,263.47182 101.78631,263.47182 C 100.04152,263.47182 98.65805,262.96401 97.63592,261.94838 C 96.6203,260.93276 96.11248,259.55906 96.11249,257.82729 C 96.11248,256.03693 96.59425,254.61766 97.5578,253.56947 C 98.52785,252.5148 99.83318,251.98745 101.47381,251.98744 C 102.94516,251.98745 104.10727,252.46271 104.96014,253.41322 C 105.81951,254.35724 106.24919,255.64305 106.2492,257.27065 M 104.45233,256.7433 C 104.4393,255.76024 104.16261,254.97573 103.62225,254.38979 C 103.08839,253.80386 102.37875,253.51089 101.49334,253.51088 C 100.49074,253.51089 99.6867,253.79409 99.08124,254.36049 C 98.48227,254.9269 98.13722,255.72443 98.04608,256.75307 L 104.45233,256.7433 M 115.53631,253.9308 C 115.33448,253.81362 115.11313,253.72899 114.87225,253.6769 C 114.63787,253.61831 114.37745,253.58902 114.091,253.58901 C 113.07537,253.58902 112.29412,253.92105 111.74725,254.5851 C 111.20688,255.24266 110.9367,256.18992 110.9367,257.4269 L 110.9367,263.18861 L 109.13006,263.18861 L 109.13006,252.25111 L 110.9367,252.25111 L 110.9367,253.95033 C 111.3143,253.28628 111.80584,252.79475 112.41131,252.47572 C 113.01678,252.15021 113.75245,251.98745 114.61834,251.98744 C 114.74204,251.98745 114.87875,251.99722 115.0285,252.01674 C 115.17823,252.02977 115.34425,252.05256 115.52655,252.0851 L 115.53631,253.9308 M 125.85858,250.22963 L 125.85858,255.70815 L 128.33905,255.70815 C 129.25701,255.70815 129.96664,255.47052 130.46795,254.99526 C 130.96925,254.52 131.2199,253.84292 131.21991,252.96401 C 131.2199,252.09162 130.96925,251.41779 130.46795,250.94252 C 129.96664,250.46727 129.25701,250.22964 128.33905,250.22963 L 125.85858,250.22963 M 123.88592,248.60854 L 128.33905,248.60854 C 129.97315,248.60855 131.20688,248.97964 132.04022,249.72182 C 132.88005,250.45751 133.29997,251.53824 133.29999,252.96401 C 133.29997,254.40282 132.88005,255.49005 132.04022,256.22572 C 131.20688,256.96141 129.97315,257.32925 128.33905,257.32924 L 125.85858,257.32924 L 125.85858,263.18861 L 123.88592,263.18861 L 123.88592,248.60854 M 135.87811,247.9933 L 137.67499,247.9933 L 137.67499,263.18861 L 135.87811,263.18861 L 135.87811,247.9933 M 146.39569,257.69057 C 144.94386,257.69057 143.938,257.85659 143.37811,258.18861 C 142.81821,258.52065 142.53826,259.08706 142.53827,259.88783 C 142.53826,260.52586 142.7466,261.03367 143.16327,261.41127 C 143.58644,261.78237 144.15936,261.96791 144.88202,261.96791 C 145.8781,261.96791 146.67563,261.61635 147.27459,260.91322 C 147.88006,260.20359 148.18279,259.26284 148.1828,258.09096 L 148.1828,257.69057 L 146.39569,257.69057 M 149.97967,256.94838 L 149.97967,263.18861 L 148.1828,263.18861 L 148.1828,261.52846 C 147.77263,262.19252 147.26157,262.68406 146.64959,263.00307 C 146.03761,263.31557 145.28891,263.47182 144.4035,263.47182 C 143.28371,263.47182 142.39178,263.15932 141.72772,262.53432 C 141.07017,261.90281 140.74139,261.05971 140.74139,260.00502 C 140.74139,258.77456 141.15155,257.84682 141.97186,257.22182 C 142.79868,256.59682 144.02915,256.28432 145.66327,256.28432 L 148.1828,256.28432 L 148.1828,256.10854 C 148.18279,255.28172 147.90935,254.6437 147.36249,254.19447 C 146.82211,253.73875 146.0604,253.51089 145.07733,253.51088 C 144.45232,253.51089 143.8436,253.58576 143.25116,253.73549 C 142.65871,253.88524 142.08905,254.10985 141.54217,254.40932 L 141.54217,252.74916 C 142.19972,252.49527 142.83774,252.30646 143.45624,252.18276 C 144.07472,252.05256 144.67693,251.98745 145.26288,251.98744 C 146.8449,251.98745 148.02654,252.39761 148.8078,253.21791 C 149.58904,254.03823 149.97966,255.28172 149.97967,256.94838 M 162.78241,256.58705 L 162.78241,263.18861 L 160.98553,263.18861 L 160.98553,256.64565 C 160.98552,255.6105 160.7837,254.83576 160.38006,254.32143 C 159.97641,253.80711 159.37094,253.54995 158.56366,253.54994 C 157.5936,253.54995 156.82863,253.8592 156.26874,254.47768 C 155.70884,255.09618 155.42889,255.93927 155.42889,257.00697 L 155.42889,263.18861 L 153.62225,263.18861 L 153.62225,252.25111 L 155.42889,252.25111 L 155.42889,253.95033 C 155.85858,253.29279 156.36313,252.80126 156.94256,252.47572 C 157.5285,252.15021 158.20232,251.98745 158.96405,251.98744 C 160.22055,251.98745 161.17107,252.37808 161.81561,253.15932 C 162.46013,253.93407 162.7824,255.07664 162.78241,256.58705 M 175.74139,257.27065 L 175.74139,258.14955 L 167.47967,258.14955 C 167.55779,259.38654 167.92889,260.33054 168.59295,260.98158 C 169.26352,261.62612 170.19451,261.94838 171.38592,261.94838 C 172.07602,261.94838 172.74334,261.86375 173.38788,261.69447 C 174.03891,261.52521 174.68344,261.2713 175.32147,260.93276 L 175.32147,262.63197 C 174.67693,262.90541 174.01612,263.11375 173.33905,263.25697 C 172.66196,263.4002 171.97511,263.47182 171.2785,263.47182 C 169.5337,263.47182 168.15024,262.96401 167.12811,261.94838 C 166.11248,260.93276 165.60467,259.55906 165.60467,257.82729 C 165.60467,256.03693 166.08644,254.61766 167.04999,253.56947 C 168.02003,252.5148 169.32537,251.98745 170.966,251.98744 C 172.43735,251.98745 173.59946,252.46271 174.45233,253.41322 C 175.31169,254.35724 175.74138,255.64305 175.74139,257.27065 M 173.94452,256.7433 C 173.93149,255.76024 173.65479,254.97573 173.11444,254.38979 C 172.58058,253.80386 171.87094,253.51089 170.98553,253.51088 C 169.98292,253.51089 169.17889,253.79409 168.57342,254.36049 C 167.97446,254.9269 167.62941,255.72443 167.53827,256.75307 L 173.94452,256.7433 M 185.66327,252.57338 L 185.66327,254.2726 C 185.15545,254.01219 184.6281,253.81688 184.08124,253.68666 C 183.53435,253.55646 182.96795,253.49136 182.38202,253.49135 C 181.49008,253.49136 180.81951,253.62808 180.3703,253.90151 C 179.92759,254.17495 179.70623,254.58511 179.70624,255.13197 C 179.70623,255.54865 179.86574,255.87742 180.18475,256.1183 C 180.50376,256.35268 181.14503,256.57729 182.10858,256.79213 L 182.72381,256.92885 C 183.99985,257.20229 184.90479,257.58966 185.43866,258.09096 C 185.97901,258.58575 186.24919,259.27911 186.2492,260.17104 C 186.24919,261.18666 185.84555,261.9907 185.03827,262.58315 C 184.23748,263.17559 183.13396,263.47182 181.72772,263.47182 C 181.14178,263.47182 180.5298,263.41322 179.89178,263.29604 C 179.26027,263.18536 178.59295,263.01609 177.88983,262.78822 L 177.88983,260.93276 C 178.55389,261.27781 179.20819,261.53823 179.85272,261.71401 C 180.49725,261.88328 181.13527,261.96791 181.76678,261.96791 C 182.61313,261.96791 183.26417,261.82468 183.71991,261.53822 C 184.17563,261.24526 184.40349,260.8351 184.4035,260.30776 C 184.40349,259.81948 184.23748,259.44513 183.90545,259.18471 C 183.57993,258.9243 182.86053,258.67365 181.74725,258.43276 L 181.12225,258.28627 C 180.00897,258.0519 179.20493,257.69383 178.71014,257.21205 C 178.21535,256.72378 177.96795,256.05646 177.96795,255.2101 C 177.96795,254.18146 178.33254,253.38719 179.0617,252.82729 C 179.79087,252.2674 180.82602,251.98745 182.16717,251.98744 C 182.83123,251.98745 183.45623,252.03628 184.04217,252.13393 C 184.6281,252.23159 185.16847,252.37808 185.66327,252.57338"
         id="path11812"
         style="font-size:20px;font-style:normal;font-variant:normal;font-weight:normal;font-stretch:normal;fill:#000000;fill-opacity:1;stroke:none;stroke-width:1px;stroke-linecap:butt;stroke-linejoin:miter;stroke-opacity:1;font-family:Sans;-inkscape-font-specification:Newspaper" />
      <g
         transform="translate(-47,155.5)"
         id="g11814">
        <g
           id="g11816">
          <path
             d="M 237.96296,102.14815 C 256.2963,102.14815 237.48076,74.193912 257.76816,74.193912"
             id="path11818"
             style="fill:none;fill-rule:evenodd;stroke:#000000;stroke-width:1.5;stroke-linecap:butt;stroke-linejoin:miter;stroke-miterlimit:4;stroke-dasharray:none;stroke-opacity:1" />
          <path
             d="M 237.96296,102.19391 C 256.2963,102.19391 237.48076,130.14815 257.76816,130.14815"
             id="path11820"
             style="fill:none;fill-rule:evenodd;stroke:#000000;stroke-width:1.5;stroke-linecap:butt;stroke-linejoin:miter;stroke-miterlimit:4;stroke-dasharray:none;stroke-opacity:1" />
        </g>
      </g>
    </g>
    <path
       d="M 449.44445,97.888885 A 7.0370369,7.0370369 0 1 1 435.37037,97.888885 A 7.0370369,7.0370369 0 1 1 449.44445,97.888885 z"
       transform="matrix(1.3421052,0,0,1.3421052,-485.41965,377.41503)"
       id="path11822"
       style="fill:#ff0d0d;fill-opacity:1;fill-rule:nonzero;stroke:none;stroke-width:1;stroke-linecap:round;stroke-linejoin:miter;stroke-miterlimit:4;stroke-dasharray:8, 4;stroke-dashoffset:0;stroke-opacity:1" />
    <path
       d="M 449.44445,97.888885 A 7.0370369,7.0370369 0 1 1 435.37037,97.888885 A 7.0370369,7.0370369 0 1 1 449.44445,97.888885 z"
       transform="matrix(0.868421,0,0,0.868421,-275.85825,401.70845)"
       id="path11824"
       style="opacity:1;fill:#ffd40d;fill-opacity:1;fill-rule:nonzero;stroke:none;stroke-width:1;stroke-linecap:round;stroke-linejoin:miter;stroke-miterlimit:4;stroke-dasharray:8, 4;stroke-dashoffset:0;stroke-opacity:1" />
    <text
       x="135.63457"
       y="491.52484"
       id="text11826"
       xml:space="preserve"
       style="font-size:20px;font-style:normal;font-variant:normal;font-weight:normal;font-stretch:normal;fill:#000000;fill-opacity:1;stroke:none;stroke-width:1px;stroke-linecap:butt;stroke-linejoin:miter;stroke-opacity:1;font-family:Sans;-inkscape-font-specification:Newspaper"><tspan
         x="135.63457"
         y="491.52484"
         id="tspan11828"
         style="font-size:18px">Copper</tspan></text>
    <path
       d="M 142.72734,501.68186 C 141.43827,501.68187 140.41288,502.16234 139.65117,503.12327 C 138.89531,504.08422 138.51738,505.39378 138.51738,507.05198 C 138.51738,508.70433 138.89531,510.01097 139.65117,510.9719 C 140.41288,511.93284 141.43827,512.41331 142.72734,512.41331 C 144.01639,512.41331 145.03593,511.93284 145.78593,510.9719 C 146.54178,510.01097 146.91971,508.70433 146.91972,507.05198 C 146.91971,505.39378 146.54178,504.08422 145.78593,503.12327 C 145.03593,502.16234 144.01639,501.68187 142.72734,501.68186 M 142.72734,500.24046 C 144.56718,500.24047 146.03788,500.85863 147.13945,502.09495 C 148.241,503.32543 148.79178,504.97777 148.79179,507.05198 C 148.79178,509.12034 148.241,510.77269 147.13945,512.00901 C 146.03788,513.23948 144.56718,513.85471 142.72734,513.85471 C 140.88163,513.85471 139.40507,513.23948 138.29765,512.00901 C 137.19609,510.77855 136.64531,509.1262 136.64531,507.05198 C 136.64531,504.97777 137.19609,503.32543 138.29765,502.09495 C 139.40507,500.85863 140.88163,500.24047 142.72734,500.24046 M 159.68144,503.75608 L 156.12187,508.54612 L 159.86601,513.59983 L 157.95879,513.59983 L 155.09355,509.73264 L 152.22832,513.59983 L 150.32109,513.59983 L 154.14433,508.44944 L 150.64629,503.75608 L 152.55351,503.75608 L 155.16386,507.26292 L 157.77422,503.75608 L 159.68144,503.75608 M 166.24687,514.51389 C 165.78984,515.68577 165.34452,516.45041 164.91093,516.80784 C 164.47734,517.16526 163.89726,517.34397 163.1707,517.34397 L 161.87871,517.34397 L 161.87871,515.99046 L 162.82793,515.99046 C 163.27324,515.99045 163.61894,515.88499 163.86504,515.67405 C 164.11113,515.46311 164.38359,514.96506 164.68242,514.17991 L 164.97246,513.44163 L 160.99101,503.75608 L 162.70488,503.75608 L 165.78105,511.4553 L 168.85722,503.75608 L 170.57109,503.75608 L 166.24687,514.51389 M 179.28105,508.5637 C 179.28104,507.39183 179.03788,506.48363 178.55156,505.83909 C 178.07108,505.19457 177.39433,504.8723 176.52129,504.87229 C 175.65409,504.8723 174.97734,505.19457 174.49101,505.83909 C 174.01054,506.48363 173.77031,507.39183 173.77031,508.5637 C 173.77031,509.72972 174.01054,510.63499 174.49101,511.27952 C 174.97734,511.92405 175.65409,512.24632 176.52129,512.24632 C 177.39433,512.24632 178.07108,511.92405 178.55156,511.27952 C 179.03788,510.63499 179.28104,509.72972 179.28105,508.5637 M 180.89824,512.37815 C 180.89823,514.05393 180.52616,515.29905 179.78203,516.1135 C 179.03788,516.93381 177.89823,517.34397 176.36308,517.34397 C 175.79472,517.34397 175.25859,517.30002 174.75468,517.21214 C 174.25078,517.1301 173.76152,517.0012 173.28691,516.82542 L 173.28691,515.25218 C 173.76152,515.50999 174.23027,515.70042 174.69316,515.82346 C 175.15605,515.94651 175.62773,516.00803 176.1082,516.00803 C 177.16874,516.00803 177.96269,515.72971 178.49004,515.17307 C 179.01737,514.62229 179.28104,513.78733 179.28105,512.66819 L 179.28105,511.86839 C 178.94706,512.44847 178.51933,512.88206 177.99785,513.16917 C 177.47636,513.45628 176.85233,513.59983 176.12578,513.59983 C 174.91874,513.59983 173.94609,513.13987 173.20781,512.21995 C 172.46953,511.30003 172.10039,510.08128 172.10039,508.5637 C 172.10039,507.04027 172.46953,505.81859 173.20781,504.89866 C 173.94609,503.97875 174.91874,503.51879 176.12578,503.51878 C 176.85233,503.51879 177.47636,503.66234 177.99785,503.94944 C 178.51933,504.23656 178.94706,504.67015 179.28105,505.25022 L 179.28105,503.75608 L 180.89824,503.75608 L 180.89824,512.37815 M 192.64922,508.27366 L 192.64922,509.06468 L 185.21367,509.06468 C 185.28398,510.17796 185.61796,511.02757 186.21562,511.6135 C 186.81913,512.19358 187.65702,512.48362 188.72929,512.48362 C 189.35038,512.48362 189.95097,512.40745 190.53105,512.2551 C 191.11698,512.10276 191.69706,511.87425 192.27129,511.56956 L 192.27129,513.09885 C 191.6912,513.34495 191.09647,513.53245 190.48711,513.66135 C 189.87772,513.79026 189.25956,513.85471 188.63261,513.85471 C 187.0623,513.85471 185.81718,513.39768 184.89726,512.48362 C 183.9832,511.56956 183.52617,510.33323 183.52617,508.77464 C 183.52617,507.16331 183.95976,505.88597 184.82695,504.9426 C 185.69999,503.9934 186.8748,503.51879 188.35136,503.51878 C 189.67558,503.51879 190.72147,503.94652 191.48906,504.80198 C 192.26249,505.6516 192.64921,506.80882 192.64922,508.27366 M 191.03203,507.79905 C 191.0203,506.91429 190.77128,506.20824 190.28496,505.68089 C 189.80448,505.15355 189.16581,504.88988 188.36894,504.88987 C 187.46659,504.88988 186.74296,505.14476 186.19804,505.65452 C 185.65898,506.16429 185.34843,506.88206 185.2664,507.80784 L 191.03203,507.79905 M 203.48613,507.65843 L 203.48613,513.59983 L 201.86894,513.59983 L 201.86894,507.71116 C 201.86893,506.77953 201.68729,506.08226 201.32402,505.61936 C 200.96073,505.15648 200.41581,504.92504 199.68925,504.92503 C 198.8162,504.92504 198.12773,505.20336 197.62383,505.75999 C 197.11992,506.31664 196.86796,507.07542 196.86797,508.03635 L 196.86797,513.59983 L 195.24199,513.59983 L 195.24199,503.75608 L 196.86797,503.75608 L 196.86797,505.28538 C 197.25468,504.69359 197.70878,504.25121 198.23027,503.95823 C 198.75761,503.66527 199.36405,503.51879 200.04961,503.51878 C 201.18046,503.51879 202.03593,503.87035 202.61601,504.57346 C 203.19608,505.27074 203.48612,506.29906 203.48613,507.65843"
       id="text11830"
       style="font-size:20px;font-style:normal;font-variant:normal;font-weight:normal;font-stretch:normal;fill:#000000;fill-opacity:1;stroke:none;stroke-width:1px;stroke-linecap:butt;stroke-linejoin:miter;stroke-opacity:1;font-family:Sans;-inkscape-font-specification:Newspaper" />
  </g>
</svg>
